<svg xmlns="http://www.w3.org/2000/svg" xmlns:v="https://svgstorm.com"
viewBox = "0 0 500 500"
width="500"
height="500">
<g fill="None" fill-opacity="0.0" stroke="#000000" stroke-opacity="0.00" stroke-width="0.3"><path d="
M 0.00 500.00 
L 500.00 500.00
L 500.00 0.00
L 0.00 0.00
L 0.00 500.00
M 332.00 72.00 
C 334.27 71.91 336.56 71.47 339.00 72.00
C 339.91 72.00 341.11 71.81 342.00 72.00
C 345.58 72.77 345.05 77.35 345.00 80.00
C 348.01 79.42 350.56 77.17 354.00 78.00
C 354.08 82.12 362.55 83.32 361.97 88.03 C 361.40 92.74 355.04 95.10 357.00 101.00
C 365.30 107.53 358.71 118.99 348.31 117.69 C 337.90 116.40 349.49 130.30 355.10 134.90 C 360.71 139.50 365.97 148.60 370.77 155.23 C 375.57 161.86 379.65 170.48 383.31 178.69 C 386.96 186.91 389.79 196.55 391.98 206.02 C 394.16 215.50 395.40 225.86 396.00 236.00 C 396.60 246.14 395.24 259.29 395.00 269.00 C 394.76 278.71 388.90 289.11 388.22 298.22 C 387.54 307.34 376.58 315.90 379.33 324.67 C 382.08 333.45 388.88 342.24 384.22 352.22 C 379.56 362.20 374.68 365.55 364.33 368.33 C 353.97 371.10 344.07 362.10 336.00 370.00
C 337.63 380.39 348.80 381.82 347.07 393.08 C 345.33 404.35 333.73 410.02 323.00 408.00 C 312.27 405.98 306.73 398.10 303.00 389.00
C 290.05 389.66 279.24 401.60 266.00 398.00
C 262.44 411.09 255.48 430.02 238.93 429.93 C 222.38 429.84 212.00 413.77 214.00 398.00
C 197.79 397.10 180.06 399.20 164.00 398.00 C 147.94 396.80 131.01 401.78 116.78 394.22 C 102.54 386.67 108.67 366.36 107.00 353.00 C 105.33 339.64 110.90 321.75 127.00 322.00
C 127.47 321.88 128.07 321.13 129.00 321.00
C 131.24 320.70 133.74 321.00 136.00 321.00
C 139.33 321.00 142.67 321.00 146.00 321.00
C 148.66 310.33 144.61 297.99 146.00 287.00 C 147.39 276.01 144.96 264.07 146.00 253.00
C 136.83 249.99 134.22 242.25 127.26 236.74 C 120.29 231.23 116.77 218.99 118.00 210.00 C 119.23 201.01 125.60 193.44 128.77 184.77 C 131.94 176.10 145.31 175.03 147.00 167.00
C 135.22 166.48 121.90 169.93 113.25 160.75 C 104.59 151.57 107.45 140.17 107.00 128.00
C 107.00 123.68 106.84 119.32 107.00 115.00
C 107.33 106.29 110.09 97.86 119.08 94.08 C 128.06 90.30 140.69 92.50 151.00 92.00 C 161.31 91.50 174.70 92.52 185.00 92.00 C 195.30 91.48 208.06 93.74 217.02 90.02 C 225.99 86.31 236.71 84.84 246.00 85.00 C 255.29 85.16 267.71 83.71 276.00 87.00 C 284.29 90.28 295.27 88.47 301.22 94.78
C 304.97 94.86 307.85 90.37 311.00 91.00
C 309.40 85.18 314.04 83.72 317.00 81.00
C 318.12 79.97 317.16 79.89 319.00 79.00
C 321.42 77.83 323.10 78.56 326.00 79.00
C 327.99 77.04 325.66 72.92 329.00 72.00
C 330.05 71.35 330.31 71.86 332.00 72.00
M 394.00 125.00 
C 403.20 123.30 401.59 139.75 393.00 138.00
C 395.43 148.09 378.64 147.65 380.00 138.00
C 371.07 139.24 370.30 122.49 380.00 125.00
C 377.81 114.22 395.89 114.57 394.00 125.00
M 124.00 264.00 
C 136.16 261.93 136.02 280.64 124.00 279.00
C 126.01 290.44 106.28 290.86 109.00 279.00
C 103.76 281.65 94.46 271.37 100.31 267.31 C 106.15 263.24 108.31 262.24 111.75 255.75 C 115.20 249.27 126.91 258.34 124.00 264.00 Z"/>
</g>
<g fill="None" fill-opacity="0.0" stroke="#071B34" stroke-opacity="0.72" stroke-width="0.3"><path d="
M 329.00 72.00 
C 330.39 75.45 340.42 71.56 342.00 72.00
C 341.11 71.81 339.91 72.00 339.00 72.00
C 336.69 72.00 334.30 72.19 332.00 72.00
C 330.31 71.86 330.05 71.35 329.00 72.00 Z"/>
</g>
<g fill="None" fill-opacity="0.0" stroke="#00004E" stroke-opacity="0.01" stroke-width="0.3"><path d="
M 332.00 72.00 
C 334.30 72.19 336.69 72.00 339.00 72.00
C 336.56 71.47 334.27 71.91 332.00 72.00 Z"/>
</g>
<g fill="None" fill-opacity="0.0" stroke="#021730" stroke-opacity="0.97" stroke-width="0.3"><path d="
M 319.00 79.00 
C 322.47 79.09 315.40 81.83 317.00 81.00
C 314.04 83.72 309.40 85.18 311.00 91.00
C 311.30 92.08 319.17 102.70 312.77 103.77 C 306.37 104.83 304.63 97.55 302.00 95.00
C 295.27 88.47 284.29 90.28 276.00 87.00 C 267.71 83.71 255.29 85.16 246.00 85.00 C 236.71 84.84 225.99 86.31 217.02 90.02 C 208.06 93.74 195.30 91.48 185.00 92.00 C 174.70 92.52 161.31 91.50 151.00 92.00 C 140.69 92.50 128.06 90.30 119.08 94.08 C 110.09 97.86 107.33 106.29 107.00 115.00
C 107.23 118.95 107.38 124.07 107.00 128.00
C 107.45 140.17 104.59 151.57 113.25 160.75 C 121.90 169.93 135.22 166.48 147.00 167.00
C 145.31 175.03 131.94 176.10 128.77 184.77 C 125.60 193.44 119.23 201.01 118.00 210.00 C 116.77 218.99 120.29 231.23 127.26 236.74 C 134.22 242.25 136.83 249.99 146.00 253.00
C 144.96 264.07 147.39 276.01 146.00 287.00 C 144.61 297.99 148.66 310.33 146.00 321.00
C 144.88 325.50 131.20 322.18 127.00 322.00
C 110.90 321.75 105.33 339.64 107.00 353.00 C 108.67 366.36 102.54 386.67 116.78 394.22 C 131.01 401.78 147.94 396.80 164.00 398.00 C 180.06 399.20 197.79 397.10 214.00 398.00
C 212.00 413.77 222.38 429.84 238.93 429.93 C 255.48 430.02 262.44 411.09 266.00 398.00
C 279.24 401.60 290.05 389.66 303.00 389.00
C 306.73 398.10 312.27 405.98 323.00 408.00 C 333.73 410.02 345.33 404.35 347.07 393.08 C 348.80 381.82 337.63 380.39 336.00 370.00
C 344.07 362.10 353.97 371.10 364.33 368.33 C 374.68 365.55 379.56 362.20 384.22 352.22 C 388.88 342.24 382.08 333.45 379.33 324.67 C 376.58 315.90 387.54 307.34 388.22 298.22 C 388.90 289.11 394.76 278.71 395.00 269.00 C 395.24 259.29 396.60 246.14 396.00 236.00 C 395.40 225.86 394.16 215.50 391.98 206.02 C 389.79 196.55 386.96 186.91 383.31 178.69 C 379.65 170.48 375.57 161.86 370.77 155.23 C 365.97 148.60 360.71 139.50 355.10 134.90 C 349.49 130.30 337.90 116.40 348.31 117.69 C 358.71 118.99 365.30 107.53 357.00 101.00
C 355.04 95.10 361.40 92.74 361.97 88.03 C 362.55 83.32 354.08 82.12 354.00 78.00
C 350.56 77.17 348.01 79.42 345.00 80.00
C 345.05 77.35 345.58 72.77 342.00 72.00
C 340.42 71.56 330.39 75.45 329.00 72.00
C 325.66 72.92 327.99 77.04 326.00 79.00
C 323.10 78.56 321.42 77.83 319.00 79.00
M 340.00 90.00 
C 347.73 82.31 354.31 103.51 342.00 99.00
C 340.99 102.88 345.21 103.46 348.00 103.00
C 349.06 109.71 343.40 108.91 340.00 106.00
C 343.71 115.27 329.34 115.32 333.00 106.00
C 329.43 107.81 325.64 110.43 324.00 104.00
C 326.51 102.30 332.10 104.02 331.00 99.00
C 318.09 104.02 324.20 83.72 333.00 89.00
C 331.05 81.60 343.51 82.67 340.00 90.00
M 296.00 108.00 
C 312.44 115.69 326.08 127.99 335.00 144.00
C 336.16 146.08 337.05 148.62 338.00 151.00
C 338.56 152.40 340.93 153.82 340.00 156.00
C 335.28 150.24 328.78 144.95 324.00 139.00
C 296.81 118.78 261.58 113.98 229.78 124.78 C 197.97 135.58 183.31 164.11 179.00 195.00
C 177.68 186.71 171.42 178.87 163.00 177.00
C 163.00 174.00 163.00 171.00 163.00 168.00
C 163.34 165.08 164.70 162.32 166.00 160.00
C 175.07 135.73 188.38 117.61 213.08 106.08 C 237.77 94.55 271.07 96.34 296.00 108.00
M 129.00 143.00 
C 126.76 139.90 127.92 133.12 128.00 129.00 C 128.08 124.88 126.70 117.18 129.00 114.00
C 133.39 107.92 147.59 113.65 155.00 112.00 C 162.41 110.35 175.11 113.24 183.00 112.00
C 174.28 122.16 164.94 132.41 161.00 145.00
C 150.65 143.72 137.76 147.60 129.00 143.00
M 322.00 145.00 
C 323.00 145.96 324.08 147.06 325.00 148.00
C 350.52 174.02 358.71 209.18 341.00 242.00
C 338.84 246.00 336.63 250.32 334.00 254.00
C 318.97 275.04 290.17 282.19 266.00 283.00 C 241.83 283.81 214.25 272.04 201.25 250.75 C 188.25 229.46 179.44 195.28 192.00 172.00
C 200.95 146.81 217.84 130.15 245.02 125.02 C 272.20 119.90 302.26 126.14 322.00 145.00
M 365.00 192.00 
C 369.73 207.57 367.57 231.28 351.00 239.00
C 359.16 225.78 361.07 210.03 360.00 194.00
C 357.69 186.89 356.89 178.99 352.00 173.00
C 359.11 176.29 363.97 184.43 365.00 192.00
M 165.00 184.00 
C 170.70 186.10 172.27 190.81 174.00 196.00
C 176.22 202.65 178.00 209.37 178.00 217.00
C 178.00 227.27 176.26 237.19 166.77 242.77 C 157.28 248.35 148.64 241.96 142.00 235.00
C 145.51 231.43 148.20 227.18 150.00 223.00
C 152.90 213.57 150.53 197.70 139.00 196.00
C 139.77 184.85 156.08 180.70 165.00 184.00
M 131.00 219.00 
C 130.42 214.30 130.58 208.95 133.00 205.00
C 138.89 195.38 146.08 210.38 144.00 219.00 C 141.92 227.62 132.72 232.86 131.00 219.00
M 357.00 313.00 
C 354.58 314.74 350.17 314.00 347.00 314.00
C 342.39 314.00 338.49 314.63 334.00 315.00
C 343.12 304.59 325.36 288.71 334.77 280.77 C 344.18 272.83 339.26 254.43 350.07 250.07 C 360.89 245.72 369.22 236.88 371.00 225.00
C 378.34 253.94 370.38 286.64 357.00 313.00
M 187.00 238.00 
C 201.03 273.74 238.00 292.68 276.00 289.00
C 292.88 284.88 310.98 282.38 326.00 272.00
C 314.30 289.70 293.43 292.96 273.33 297.33 C 253.23 301.70 225.58 297.40 207.77 288.23 C 189.96 279.06 179.73 265.03 169.00 249.00
C 177.27 244.58 182.05 235.18 182.00 226.00
C 184.98 229.16 184.24 234.41 187.00 238.00
M 171.00 283.00 
C 170.81 285.25 170.86 287.75 171.00 290.00
C 171.40 296.32 174.54 302.38 180.00 306.00
C 164.82 317.18 168.90 343.00 191.00 340.00
C 179.87 356.72 197.17 373.33 215.00 368.00
C 216.10 368.26 219.66 373.44 216.00 376.00
C 212.16 378.69 203.99 374.92 199.00 376.00 C 194.01 377.08 186.43 375.61 181.00 376.00 C 175.57 376.39 168.48 376.05 163.00 376.00 C 157.52 375.95 150.19 376.53 145.00 376.00 C 139.81 375.47 132.08 378.27 129.00 374.00
C 126.81 370.97 127.83 362.93 128.00 359.00 C 128.17 355.07 126.36 346.64 129.00 344.00
C 132.72 340.28 141.55 344.12 147.00 343.00 C 152.45 341.88 161.25 343.84 167.00 343.00
C 167.00 316.33 167.00 289.67 167.00 263.00
C 173.43 268.81 174.46 275.37 171.00 283.00
M 329.00 327.00 
C 331.10 328.29 332.70 328.43 335.00 329.00
C 337.58 329.32 340.40 329.00 343.00 329.00
C 345.23 329.00 347.81 329.37 350.00 329.00
C 358.31 327.60 366.02 323.04 371.00 333.00
C 377.39 345.79 369.37 350.99 358.00 353.00 C 346.63 355.01 341.41 338.61 330.00 344.00 C 318.58 349.39 321.16 328.61 310.00 331.00
C 298.54 343.89 316.35 349.14 315.00 364.00
C 314.58 368.64 311.45 376.89 305.78 374.22 C 300.10 371.55 300.19 365.96 298.00 361.00
C 295.44 355.19 290.61 349.26 283.00 351.00
C 276.31 357.63 275.21 358.41 275.00 369.00
C 275.42 373.31 277.69 378.39 273.25 382.25 C 268.80 386.10 265.28 382.85 263.00 379.00
C 260.89 375.44 256.64 362.82 250.31 368.31 C 243.97 373.80 247.00 383.61 247.00 391.00
C 250.46 396.36 251.63 407.40 245.25 413.25 C 238.86 419.09 229.48 413.89 229.00 405.00
C 228.63 398.22 230.51 395.03 234.00 390.00
C 237.26 385.29 239.70 380.79 235.00 376.00
C 228.64 369.52 232.68 363.21 238.75 356.75 C 244.83 350.30 241.63 337.95 231.98 338.02 C 222.32 338.10 219.77 343.88 213.75 351.75 C 207.74 359.62 193.69 350.29 204.25 344.25 C 214.81 338.21 208.90 329.40 201.00 327.00
C 196.05 326.16 190.23 328.19 186.00 326.00
C 181.67 323.76 183.09 321.66 185.00 318.00
C 186.37 315.38 191.38 311.58 192.00 309.00
C 193.33 303.45 188.26 300.23 185.00 297.00
C 180.50 292.54 180.27 287.64 183.00 282.00
C 189.85 288.88 195.14 292.80 203.70 297.31 C 212.25 301.81 221.83 304.42 231.67 306.33 C 241.51 308.24 255.60 309.51 266.00 309.00 C 276.40 308.49 287.83 305.15 297.02 303.02 C 306.22 300.90 315.01 291.00 322.25 298.75 C 329.48 306.51 314.66 320.46 332.00 320.00
C 332.63 323.10 326.65 324.08 329.00 327.00
M 324.00 382.00 
C 324.87 382.41 326.05 382.48 327.00 383.00
C 336.49 388.21 332.14 397.96 323.33 395.67 C 314.52 393.38 313.13 384.46 316.00 378.00
C 318.58 379.43 322.13 379.62 324.00 382.00 Z"/>
</g>
<g fill="None" fill-opacity="0.0" stroke="#1B2E40" stroke-opacity="0.47" stroke-width="0.3"><path d="
M 317.00 81.00 
C 315.40 81.83 322.47 79.09 319.00 79.00
C 317.16 79.89 318.12 79.97 317.00 81.00 Z"/>
</g>
<g fill="None" fill-opacity="0.0" stroke="#92CCE6" stroke-opacity="1.00" stroke-width="0.3"><path d="
M 340.00 90.00 
C 343.51 82.67 331.05 81.60 333.00 89.00
C 324.20 83.72 318.09 104.02 331.00 99.00
C 332.10 104.02 326.51 102.30 324.00 104.00
C 325.64 110.43 329.43 107.81 333.00 106.00
C 329.34 115.32 343.71 115.27 340.00 106.00
C 343.40 108.91 349.06 109.71 348.00 103.00
C 345.21 103.46 340.99 102.88 342.00 99.00
C 354.31 103.51 347.73 82.31 340.00 90.00
M 340.00 95.00 
C 338.95 89.11 345.89 94.99 340.00 95.00 Z"/>
</g>
<g fill="None" fill-opacity="0.0" stroke="#959DA6" stroke-opacity="0.89" stroke-width="0.3"><path d="
M 302.00 95.00 
C 304.63 97.55 306.37 104.83 312.77 103.77 C 319.17 102.70 311.30 92.08 311.00 91.00
C 307.85 90.37 304.97 94.86 302.00 95.00 Z"/>
</g>
<g fill="None" fill-opacity="0.0" stroke="#244054" stroke-opacity="1.00" stroke-width="0.3"><path d="
M 340.00 95.00 
C 345.89 94.99 338.95 89.11 340.00 95.00 Z"/>
</g>
<g fill="None" fill-opacity="0.0" stroke="#F0F3F5" stroke-opacity="1.00" stroke-width="0.3"><path d="
M 166.00 160.00 
C 192.77 112.47 245.45 94.46 296.00 108.00
C 271.07 96.34 237.77 94.55 213.08 106.08 C 188.38 117.61 175.07 135.73 166.00 160.00 Z"/>
</g>
<g fill="None" fill-opacity="0.0" stroke="#BFCBE7" stroke-opacity="1.00" stroke-width="0.3"><path d="
M 166.00 160.00 
C 164.70 162.32 163.34 165.08 163.00 168.00
C 164.42 177.44 175.48 163.35 177.75 157.75 C 180.03 152.16 187.52 144.98 192.75 139.75 C 197.98 134.53 204.23 129.29 211.08 125.08 C 217.93 120.87 226.77 117.16 235.02 115.02 C 243.28 112.89 254.74 110.19 264.00 111.00 C 273.26 111.81 283.21 113.67 291.69 116.31 C 300.17 118.95 306.12 123.36 313.70 127.30 C 321.28 131.25 325.60 137.70 332.00 143.00
C 332.63 143.52 335.62 144.54 335.00 144.00
C 326.08 127.99 312.44 115.69 296.00 108.00
C 245.45 94.46 192.77 112.47 166.00 160.00 Z"/>
</g>
<g fill="None" fill-opacity="0.0" stroke="#7E89BC" stroke-opacity="1.00" stroke-width="0.3"><path d="
M 163.00 168.00 
C 163.00 171.00 163.00 174.00 163.00 177.00
C 171.42 178.87 177.68 186.71 179.00 195.00
C 183.31 164.11 197.97 135.58 229.78 124.78 C 261.58 113.98 296.81 118.78 324.00 139.00
C 325.61 140.20 327.64 141.64 329.00 143.00
C 331.65 144.64 331.66 142.93 332.00 143.00
C 325.60 137.70 321.28 131.25 313.70 127.30 C 306.12 123.36 300.17 118.95 291.69 116.31 C 283.21 113.67 273.26 111.81 264.00 111.00 C 254.74 110.19 243.28 112.89 235.02 115.02 C 226.77 117.16 217.93 120.87 211.08 125.08 C 204.23 129.29 197.98 134.53 192.75 139.75 C 187.52 144.98 180.03 152.16 177.75 157.75 C 175.48 163.35 164.42 177.44 163.00 168.00 Z"/>
</g>
<g fill="None" fill-opacity="0.0" stroke="#A6DDF6" stroke-opacity="1.00" stroke-width="0.3"><path d="
M 129.00 114.00 
C 127.50 117.03 128.86 124.45 129.00 128.00 C 129.14 131.55 127.42 139.81 129.00 143.00
C 137.76 147.60 150.65 143.72 161.00 145.00
C 164.94 132.41 174.28 122.16 183.00 112.00
C 175.11 113.24 162.41 110.35 155.00 112.00 C 147.59 113.65 133.39 107.92 129.00 114.00 Z"/>
</g>
<g fill="None" fill-opacity="0.0" stroke="#537993" stroke-opacity="1.00" stroke-width="0.3"><path d="
M 129.00 143.00 
C 127.42 139.81 129.14 131.55 129.00 128.00 C 128.86 124.45 127.50 117.03 129.00 114.00
C 126.70 117.18 128.08 124.88 128.00 129.00 C 127.92 133.12 126.76 139.90 129.00 143.00 Z"/>
</g>
<g fill="None" fill-opacity="0.0" stroke="#121736" stroke-opacity="0.05" stroke-width="0.3"><path d="
M 107.00 128.00 
C 107.38 124.07 107.23 118.95 107.00 115.00
C 106.84 119.32 107.00 123.68 107.00 128.00 Z"/>
</g>
<g fill="None" fill-opacity="0.0" stroke="#02162F" stroke-opacity="0.88" stroke-width="0.3"><path d="
M 394.00 125.00 
C 395.89 114.57 377.81 114.22 380.00 125.00
C 370.30 122.49 371.07 139.24 380.00 138.00
C 378.64 147.65 395.43 148.09 393.00 138.00
C 401.59 139.75 403.20 123.30 394.00 125.00
M 391.00 130.00 
C 391.16 132.52 386.69 132.68 388.00 136.00
C 385.04 136.57 386.60 131.07 383.00 132.00
C 382.84 129.48 387.31 129.32 386.00 126.00
C 388.38 126.63 387.95 130.57 391.00 130.00 Z"/>
</g>
<g fill="None" fill-opacity="0.0" stroke="#4172AF" stroke-opacity="1.00" stroke-width="0.3"><path d="
M 192.00 172.00 
C 217.75 124.29 280.76 115.88 322.00 148.00
C 320.05 145.81 321.90 144.72 322.00 145.00
C 302.26 126.14 272.20 119.90 245.02 125.02 C 217.84 130.15 200.95 146.81 192.00 172.00 Z"/>
</g>
<g fill="None" fill-opacity="0.0" stroke="#82B8D1" stroke-opacity="0.97" stroke-width="0.3"><path d="
M 391.00 130.00 
C 387.95 130.57 388.38 126.63 386.00 126.00
C 387.31 129.32 382.84 129.48 383.00 132.00
C 386.60 131.07 385.04 136.57 388.00 136.00
C 386.69 132.68 391.16 132.52 391.00 130.00 Z"/>
</g>
<g fill="None" fill-opacity="0.0" stroke="#1F2C5F" stroke-opacity="1.00" stroke-width="0.3"><path d="
M 192.00 172.00 
C 179.44 195.28 188.25 229.46 201.25 250.75 C 214.25 272.04 241.83 283.81 266.00 283.00 C 290.17 282.19 318.97 275.04 334.00 254.00
C 333.26 254.52 327.49 254.60 328.00 254.00
C 329.89 247.25 336.76 243.48 339.30 236.30 C 341.85 229.13 344.83 221.30 345.00 213.00
C 345.09 208.71 345.23 204.29 345.00 200.00
C 344.84 197.08 344.40 194.82 344.00 192.00
C 342.59 187.16 340.13 181.93 338.00 177.00
C 337.39 175.58 334.96 171.48 335.00 170.00
C 334.03 170.62 329.82 169.60 329.00 169.00
C 329.52 172.88 327.82 176.76 326.00 180.00
C 325.02 181.75 322.87 182.81 323.00 185.00
C 331.24 189.68 332.88 196.84 336.97 205.03 C 341.06 213.21 332.73 226.29 337.00 232.00
C 330.89 232.17 328.83 241.93 322.00 244.00
C 321.83 244.43 322.00 245.00 322.00 245.00
C 314.72 259.89 298.74 264.67 283.93 269.93 C 269.12 275.18 248.15 270.27 234.30 260.70 C 220.46 251.13 214.16 235.22 212.00 219.00
C 211.64 216.29 210.95 213.97 211.00 211.00
C 211.10 204.84 212.86 197.65 215.00 192.00
C 218.30 183.29 223.31 178.28 230.25 171.25 C 237.18 164.22 244.77 161.91 254.23 158.23 C 263.69 154.54 278.46 159.31 288.00 159.00
C 294.40 158.79 301.91 150.82 309.00 153.00 C 316.09 155.18 321.70 156.80 326.00 163.00
C 327.99 162.27 331.14 162.46 332.00 160.00
C 329.19 156.18 325.91 152.74 323.00 149.00
C 322.79 148.73 322.27 148.21 322.00 148.00
C 280.76 115.88 217.75 124.29 192.00 172.00
M 302.00 139.00 
C 305.05 140.72 301.22 146.07 298.33 143.67 C 295.43 141.26 298.94 137.27 302.00 139.00
M 225.00 158.00 
C 219.11 159.05 224.99 152.11 225.00 158.00 Z"/>
</g>
<g fill="None" fill-opacity="0.0" stroke="#CACFE4" stroke-opacity="1.00" stroke-width="0.3"><path d="
M 302.00 139.00 
C 298.94 137.27 295.43 141.26 298.33 143.67 C 301.22 146.07 305.05 140.72 302.00 139.00 Z"/>
</g>
<g fill="None" fill-opacity="0.0" stroke="#35446C" stroke-opacity="1.00" stroke-width="0.3"><path d="
M 338.00 151.00 
C 336.95 149.84 331.31 145.31 329.00 143.00
C 327.64 141.64 325.61 140.20 324.00 139.00
C 328.78 144.95 335.28 150.24 340.00 156.00
C 340.93 153.82 338.56 152.40 338.00 151.00 Z"/>
</g>
<g fill="None" fill-opacity="0.0" stroke="#5B689E" stroke-opacity="1.00" stroke-width="0.3"><path d="
M 338.00 151.00 
C 337.05 148.62 336.16 146.08 335.00 144.00
C 335.62 144.54 332.63 143.52 332.00 143.00
C 331.66 142.93 331.65 144.64 329.00 143.00
C 331.31 145.31 336.95 149.84 338.00 151.00 Z"/>
</g>
<g fill="None" fill-opacity="0.0" stroke="#8698C4" stroke-opacity="1.00" stroke-width="0.3"><path d="
M 322.00 148.00 
C 322.27 148.21 322.79 148.73 323.00 149.00
C 322.33 148.68 324.88 147.98 325.00 148.00
C 324.08 147.06 323.00 145.96 322.00 145.00
C 321.90 144.72 320.05 145.81 322.00 148.00 Z"/>
</g>
<g fill="None" fill-opacity="0.0" stroke="#E2E6EB" stroke-opacity="1.00" stroke-width="0.3"><path d="
M 323.00 149.00 
C 325.91 152.74 329.19 156.18 332.00 160.00
C 333.71 162.32 334.75 164.39 336.00 167.00
C 338.28 171.77 340.34 176.74 342.00 182.00
C 343.10 185.47 343.47 188.32 344.00 192.00
C 344.40 194.82 344.84 197.08 345.00 200.00
C 345.70 204.29 345.51 208.82 345.00 213.00
C 344.83 221.30 341.85 229.13 339.30 236.30 C 336.76 243.48 329.89 247.25 328.00 254.00
C 331.53 249.81 337.79 246.73 341.00 242.00
C 358.71 209.18 350.52 174.02 325.00 148.00
C 324.88 147.98 322.33 148.68 323.00 149.00 Z"/>
</g>
<g fill="None" fill-opacity="0.0" stroke="#C9D7EE" stroke-opacity="1.00" stroke-width="0.3"><path d="
M 288.00 159.00 
C 284.87 161.37 282.67 165.42 279.00 168.00
C 278.22 172.63 285.55 176.53 288.00 172.00
C 284.41 172.74 284.98 169.53 285.00 167.00
C 286.84 167.76 288.62 168.54 288.00 171.00
C 292.26 172.52 293.40 180.52 298.70 182.30 C 304.00 184.08 310.41 186.15 315.00 188.00
C 314.77 184.72 318.79 184.72 321.00 184.00
C 322.17 183.37 325.12 181.13 326.00 180.00
C 327.82 176.76 329.52 172.88 329.00 169.00
C 328.72 166.92 327.18 164.70 326.00 163.00
C 321.70 156.80 316.09 155.18 309.00 153.00 C 301.91 150.82 294.40 158.79 288.00 159.00
M 311.00 156.00 
C 315.23 157.34 323.73 168.57 316.75 171.75 C 309.77 174.93 303.85 172.26 298.25 165.75 C 292.64 159.24 302.89 153.44 311.00 156.00 Z"/>
</g>
<g fill="None" fill-opacity="0.0" stroke="#C2C3D3" stroke-opacity="1.00" stroke-width="0.3"><path d="
M 225.00 158.00 
C 224.99 152.11 219.11 159.05 225.00 158.00 Z"/>
</g>
<g fill="None" fill-opacity="0.0" stroke="#FBFDFE" stroke-opacity="1.00" stroke-width="0.3"><path d="
M 311.00 156.00 
C 302.89 153.44 292.64 159.24 298.25 165.75 C 303.85 172.26 309.77 174.93 316.75 171.75 C 323.73 168.57 315.23 157.34 311.00 156.00 Z"/>
</g>
<g fill="None" fill-opacity="0.0" stroke="#28457E" stroke-opacity="1.00" stroke-width="0.3"><path d="
M 215.00 192.00 
C 220.72 181.06 234.92 182.01 243.68 174.68 C 252.44 167.35 271.82 173.05 279.00 168.00
C 282.67 165.42 284.87 161.37 288.00 159.00
C 278.46 159.31 263.69 154.54 254.23 158.23 C 244.77 161.91 237.18 164.22 230.25 171.25 C 223.31 178.28 218.30 183.29 215.00 192.00
M 258.00 166.00 
C 255.14 171.30 252.74 162.63 258.00 166.00 Z"/>
</g>
<g fill="None" fill-opacity="0.0" stroke="#3D508A" stroke-opacity="1.00" stroke-width="0.3"><path d="
M 326.00 163.00 
C 327.18 164.70 328.72 166.92 329.00 169.00
C 329.82 169.60 334.03 170.62 335.00 170.00
C 335.03 169.06 335.96 168.16 336.00 167.00
C 334.75 164.39 333.71 162.32 332.00 160.00
C 331.14 162.46 327.99 162.27 326.00 163.00 Z"/>
</g>
<g fill="None" fill-opacity="0.0" stroke="#D0D6E4" stroke-opacity="1.00" stroke-width="0.3"><path d="
M 258.00 166.00 
C 252.74 162.63 255.14 171.30 258.00 166.00 Z"/>
</g>
<g fill="None" fill-opacity="0.0" stroke="#FAFBFD" stroke-opacity="1.00" stroke-width="0.3"><path d="
M 288.00 172.00 
C 288.21 171.61 288.00 171.00 288.00 171.00
C 288.62 168.54 286.84 167.76 285.00 167.00
C 284.98 169.53 284.41 172.74 288.00 172.00 Z"/>
</g>
<g fill="None" fill-opacity="0.0" stroke="#657AAC" stroke-opacity="1.00" stroke-width="0.3"><path d="
M 335.00 170.00 
C 334.96 171.48 337.39 175.58 338.00 177.00
C 338.86 178.57 341.21 180.34 342.00 182.00
C 340.34 176.74 338.28 171.77 336.00 167.00
C 335.96 168.16 335.03 169.06 335.00 170.00 Z"/>
</g>
<g fill="None" fill-opacity="0.0" stroke="#265B95" stroke-opacity="1.00" stroke-width="0.3"><path d="
M 215.00 192.00 
C 212.86 197.65 211.10 204.84 211.00 211.00
C 212.71 205.68 222.50 202.60 227.08 198.08 C 231.67 193.57 239.94 191.09 246.25 188.80 C 252.55 186.51 262.90 184.98 271.00 185.00 C 279.10 185.02 291.08 184.67 299.00 187.00
C 300.30 187.38 301.18 188.70 302.00 189.00
C 309.05 187.57 315.99 192.98 323.07 194.93 C 330.16 196.88 332.10 205.87 334.00 213.00 C 335.90 220.14 328.20 228.20 326.00 234.00
C 325.53 235.25 325.54 236.66 325.00 238.00
C 330.30 230.73 338.43 219.07 335.00 209.00 C 331.57 198.93 324.97 192.90 321.00 184.00
C 318.79 184.72 314.77 184.72 315.00 188.00
C 310.41 186.15 304.00 184.08 298.70 182.30 C 293.40 180.52 292.26 172.52 288.00 171.00
C 288.00 171.00 288.21 171.61 288.00 172.00
C 285.55 176.53 278.22 172.63 279.00 168.00
C 271.82 173.05 252.44 167.35 243.68 174.68 C 234.92 182.01 220.72 181.06 215.00 192.00
M 246.00 180.00 
C 248.18 182.18 244.62 186.98 241.78 184.22 C 238.94 181.46 244.35 178.35 246.00 180.00 Z"/>
</g>
<g fill="None" fill-opacity="0.0" stroke="#838EBE" stroke-opacity="1.00" stroke-width="0.3"><path d="
M 360.00 194.00 
C 360.86 196.65 361.83 201.90 364.00 203.00
C 364.62 199.44 365.39 195.84 365.00 192.00
C 363.97 184.43 359.11 176.29 352.00 173.00
C 356.89 178.99 357.69 186.89 360.00 194.00 Z"/>
</g>
<g fill="None" fill-opacity="0.0" stroke="#3E5A91" stroke-opacity="1.00" stroke-width="0.3"><path d="
M 344.00 192.00 
C 343.47 188.32 343.10 185.47 342.00 182.00
C 341.21 180.34 338.86 178.57 338.00 177.00
C 340.13 181.93 342.59 187.16 344.00 192.00 Z"/>
</g>
<g fill="None" fill-opacity="0.0" stroke="#E5EEF4" stroke-opacity="1.00" stroke-width="0.3"><path d="
M 246.00 180.00 
C 244.35 178.35 238.94 181.46 241.78 184.22 C 244.62 186.98 248.18 182.18 246.00 180.00 Z"/>
</g>
<g fill="None" fill-opacity="0.0" stroke="#23487B" stroke-opacity="1.00" stroke-width="0.3"><path d="
M 321.00 184.00 
C 324.97 192.90 331.57 198.93 335.00 209.00 C 338.43 219.07 330.30 230.73 325.00 238.00
C 324.16 240.10 322.82 241.90 322.00 244.00
C 328.83 241.93 330.89 232.17 337.00 232.00
C 332.73 226.29 341.06 213.21 336.97 205.03 C 332.88 196.84 331.24 189.68 323.00 185.00
C 322.87 182.81 325.02 181.75 326.00 180.00
C 325.12 181.13 322.17 183.37 321.00 184.00 Z"/>
</g>
<g fill="None" fill-opacity="0.0" stroke="#848FC1" stroke-opacity="1.00" stroke-width="0.3"><path d="
M 150.00 223.00 
C 150.20 224.20 150.42 225.78 152.00 226.00
C 153.63 216.16 154.04 203.36 150.00 195.00
C 146.89 188.47 154.15 186.41 160.00 190.00
C 157.67 185.55 160.31 183.31 165.00 184.00
C 156.08 180.70 139.77 184.85 139.00 196.00
C 150.53 197.70 152.90 213.57 150.00 223.00 Z"/>
</g>
<g fill="None" fill-opacity="0.0" stroke="#AEBADD" stroke-opacity="1.00" stroke-width="0.3"><path d="
M 160.00 190.00 
C 168.66 195.31 170.30 210.69 169.00 220.00
C 172.68 212.21 175.19 205.60 174.00 196.00
C 172.27 190.81 170.70 186.10 165.00 184.00
C 160.31 183.31 157.67 185.55 160.00 190.00 Z"/>
</g>
<g fill="None" fill-opacity="0.0" stroke="#246EA8" stroke-opacity="1.00" stroke-width="0.3"><path d="
M 211.00 211.00 
C 210.95 213.97 211.64 216.29 212.00 219.00
C 212.32 219.82 213.63 221.20 214.00 222.00
C 214.33 219.53 219.18 218.35 217.00 214.00
C 225.66 211.30 228.90 202.05 238.23 198.23 C 247.55 194.41 259.21 194.24 267.00 189.00
C 269.00 188.04 269.04 188.07 271.00 189.00
C 272.23 189.59 271.91 190.79 272.00 192.00
C 281.47 189.38 292.33 189.50 301.22 193.78 C 310.11 198.06 324.76 194.56 329.00 204.00
C 332.97 213.19 331.08 217.46 328.00 226.00
C 327.91 228.09 327.18 232.27 326.00 234.00
C 328.20 228.20 335.90 220.14 334.00 213.00 C 332.10 205.87 330.16 196.88 323.07 194.93 C 315.99 192.98 309.05 187.57 302.00 189.00
C 301.14 189.17 300.86 191.24 299.30 190.64 C 297.75 190.04 297.94 187.25 299.00 187.00
C 291.08 184.67 279.10 185.02 271.00 185.00 C 262.90 184.98 252.55 186.51 246.25 188.80 C 239.94 191.09 231.67 193.57 227.08 198.08 C 222.50 202.60 212.71 205.68 211.00 211.00 Z"/>
</g>
<g fill="None" fill-opacity="0.0" stroke="#98B8D5" stroke-opacity="1.00" stroke-width="0.3"><path d="
M 302.00 189.00 
C 301.18 188.70 300.30 187.38 299.00 187.00
C 297.94 187.25 297.75 190.04 299.30 190.64 C 300.86 191.24 301.14 189.17 302.00 189.00 Z"/>
</g>
<g fill="None" fill-opacity="0.0" stroke="#041831" stroke-opacity="1.00" stroke-width="0.3"><path d="
M 150.00 195.00 
C 153.24 196.80 159.17 195.45 159.92 201.08 C 160.68 206.70 163.30 210.43 162.00 216.00 C 160.70 221.57 160.29 224.65 159.00 230.00
C 144.35 229.39 154.33 248.25 163.00 236.00
C 166.55 231.72 166.66 224.94 169.00 220.00
C 170.30 210.69 168.66 195.31 160.00 190.00
C 154.15 186.41 146.89 188.47 150.00 195.00 Z"/>
</g>
<g fill="None" fill-opacity="0.0" stroke="#E2EFF5" stroke-opacity="1.00" stroke-width="0.3"><path d="
M 267.00 189.00 
C 263.94 193.58 274.04 193.56 271.00 189.00
C 269.04 188.07 269.00 188.04 267.00 189.00 Z"/>
</g>
<g fill="None" fill-opacity="0.0" stroke="#247DB6" stroke-opacity="1.00" stroke-width="0.3"><path d="
M 214.00 222.00 
C 216.46 227.35 218.43 231.34 222.00 236.00
C 219.91 231.71 223.97 224.92 224.33 219.33 C 224.69 213.74 233.56 210.44 232.00 204.00
C 242.35 201.06 256.60 198.57 267.67 199.67 C 278.74 200.77 287.44 197.16 298.01 201.99 C 308.58 206.82 318.35 200.29 329.00 204.00
C 324.76 194.56 310.11 198.06 301.22 193.78 C 292.33 189.50 281.47 189.38 272.00 192.00
C 271.91 190.79 272.23 189.59 271.00 189.00
C 274.04 193.56 263.94 193.58 267.00 189.00
C 259.21 194.24 247.55 194.41 238.23 198.23 C 228.90 202.05 225.66 211.30 217.00 214.00
C 219.18 218.35 214.33 219.53 214.00 222.00
M 222.00 214.00 
C 224.53 215.23 222.22 220.46 219.32 218.66 C 216.42 216.86 219.18 212.63 222.00 214.00 Z"/>
</g>
<g fill="None" fill-opacity="0.0" stroke="#526198" stroke-opacity="1.00" stroke-width="0.3"><path d="
M 360.00 194.00 
C 361.07 210.03 359.16 225.78 351.00 239.00
C 367.57 231.28 369.73 207.57 365.00 192.00
C 365.39 195.84 364.62 199.44 364.00 203.00
C 361.83 201.90 360.86 196.65 360.00 194.00 Z"/>
</g>
<g fill="None" fill-opacity="0.0" stroke="#46568C" stroke-opacity="1.00" stroke-width="0.3"><path d="
M 150.00 223.00 
C 148.20 227.18 145.51 231.43 142.00 235.00
C 148.64 241.96 157.28 248.35 166.77 242.77 C 176.26 237.19 178.00 227.27 178.00 217.00
C 176.40 222.91 167.93 232.11 163.00 236.00
C 154.33 248.25 144.35 229.39 159.00 230.00
C 160.29 224.65 160.70 221.57 162.00 216.00 C 163.30 210.43 160.68 206.70 159.92 201.08 C 159.17 195.45 153.24 196.80 150.00 195.00
C 154.04 203.36 153.63 216.16 152.00 226.00
C 150.42 225.78 150.20 224.20 150.00 223.00 Z"/>
</g>
<g fill="None" fill-opacity="0.0" stroke="#7C88BC" stroke-opacity="1.00" stroke-width="0.3"><path d="
M 169.00 220.00 
C 166.66 224.94 166.55 231.72 163.00 236.00
C 167.93 232.11 176.40 222.91 178.00 217.00
C 178.00 209.37 176.22 202.65 174.00 196.00
C 175.19 205.60 172.68 212.21 169.00 220.00 Z"/>
</g>
<g fill="None" fill-opacity="0.0" stroke="#238DC2" stroke-opacity="1.00" stroke-width="0.3"><path d="
M 222.00 236.00 
C 236.72 266.16 283.31 262.56 309.00 254.00
C 309.10 253.92 317.24 241.62 316.00 250.00
C 317.98 248.37 319.94 246.44 322.00 245.00
C 322.00 245.00 321.83 244.43 322.00 244.00
C 322.82 241.90 324.16 240.10 325.00 238.00
C 325.54 236.66 325.53 235.25 326.00 234.00
C 321.49 240.57 308.84 239.92 302.31 245.31 C 295.77 250.69 285.26 254.90 276.00 254.00 C 266.74 253.10 259.32 248.34 250.92 244.08 C 242.52 239.82 237.19 237.86 233.02 226.98 C 228.86 216.09 235.82 209.88 244.00 204.00
C 245.40 203.00 244.89 202.26 247.00 202.00
C 255.72 200.94 267.67 207.27 275.74 209.26 C 283.82 211.25 298.37 209.53 299.00 220.00
C 305.07 220.85 311.94 211.88 313.00 206.00
C 318.06 206.20 326.22 201.01 329.30 206.70 C 332.38 212.39 330.87 218.13 328.00 223.00
C 327.92 223.49 328.00 224.00 328.00 224.00
C 328.00 224.50 328.02 225.50 328.00 226.00
C 331.08 217.46 332.97 213.19 329.00 204.00
C 318.35 200.29 308.58 206.82 298.01 201.99 C 287.44 197.16 278.74 200.77 267.67 199.67 C 256.60 198.57 242.35 201.06 232.00 204.00
C 233.56 210.44 224.69 213.74 224.33 219.33 C 223.97 224.92 219.91 231.71 222.00 236.00 Z"/>
</g>
<g fill="None" fill-opacity="0.0" stroke="#6F7D93" stroke-opacity="1.00" stroke-width="0.3"><path d="
M 345.00 213.00 
C 345.51 208.82 345.70 204.29 345.00 200.00
C 345.23 204.29 345.09 208.71 345.00 213.00 Z"/>
</g>
<g fill="None" fill-opacity="0.0" stroke="#7E8BBD" stroke-opacity="1.00" stroke-width="0.3"><path d="
M 133.00 205.00 
C 139.78 199.91 139.89 211.55 140.00 216.00 C 140.11 220.45 133.38 226.84 131.00 219.00
C 132.72 232.86 141.92 227.62 144.00 219.00 C 146.08 210.38 138.89 195.38 133.00 205.00 Z"/>
</g>
<g fill="None" fill-opacity="0.0" stroke="#B4DCEC" stroke-opacity="1.00" stroke-width="0.3"><path d="
M 244.00 204.00 
C 244.32 203.96 245.39 206.32 246.70 205.64 C 248.01 204.96 248.24 202.29 247.00 202.00
C 244.89 202.26 245.40 203.00 244.00 204.00 Z"/>
</g>
<g fill="None" fill-opacity="0.0" stroke="#2B9ECE" stroke-opacity="1.00" stroke-width="0.3"><path d="
M 244.00 204.00 
C 235.82 209.88 228.86 216.09 233.02 226.98 C 237.19 237.86 242.52 239.82 250.92 244.08 C 259.32 248.34 266.74 253.10 276.00 254.00 C 285.26 254.90 295.77 250.69 302.31 245.31 C 308.84 239.92 321.49 240.57 326.00 234.00
C 327.18 232.27 327.91 228.09 328.00 226.00
C 328.02 225.50 328.00 224.50 328.00 224.00
C 323.78 232.70 317.45 229.05 311.00 230.00
C 314.72 223.22 308.82 213.36 318.25 207.25 C 327.67 201.14 333.61 215.33 328.00 223.00
C 330.87 218.13 332.38 212.39 329.30 206.70 C 326.22 201.01 318.06 206.20 313.00 206.00
C 311.94 211.88 305.07 220.85 299.00 220.00
C 298.37 209.53 283.82 211.25 275.74 209.26 C 267.67 207.27 255.72 200.94 247.00 202.00
C 248.24 202.29 248.01 204.96 246.70 205.64 C 245.39 206.32 244.32 203.96 244.00 204.00
M 254.00 208.00 
C 262.61 209.78 274.20 226.15 266.23 234.23 C 258.25 242.31 244.55 238.18 238.08 227.92 C 231.62 217.66 238.70 204.83 254.00 208.00
M 297.00 214.00 
C 299.53 215.23 297.22 220.46 294.32 218.66 C 291.42 216.86 294.18 212.63 297.00 214.00
M 272.00 234.00 
C 274.53 235.23 272.22 240.46 269.32 238.66 C 266.42 236.86 269.18 232.63 272.00 234.00
M 282.00 249.00 
C 281.82 241.38 289.94 249.39 282.00 249.00 Z"/>
</g>
<g fill="None" fill-opacity="0.0" stroke="#B9C5E6" stroke-opacity="1.00" stroke-width="0.3"><path d="
M 133.00 205.00 
C 130.58 208.95 130.42 214.30 131.00 219.00
C 133.38 226.84 140.11 220.45 140.00 216.00 C 139.89 211.55 139.78 199.91 133.00 205.00 Z"/>
</g>
<g fill="None" fill-opacity="0.0" stroke="#53B6DB" stroke-opacity="1.00" stroke-width="0.3"><path d="
M 328.00 224.00 
C 328.00 224.00 327.92 223.49 328.00 223.00
C 333.61 215.33 327.67 201.14 318.25 207.25 C 308.82 213.36 314.72 223.22 311.00 230.00
C 317.45 229.05 323.78 232.70 328.00 224.00
M 317.00 228.00 
C 313.61 221.79 319.09 202.16 326.74 208.26 C 334.39 214.36 320.92 225.98 317.00 228.00 Z"/>
</g>
<g fill="None" fill-opacity="0.0" stroke="#F8FDFD" stroke-opacity="1.00" stroke-width="0.3"><path d="
M 317.00 228.00 
C 320.92 225.98 334.39 214.36 326.74 208.26 C 319.09 202.16 313.61 221.79 317.00 228.00 Z"/>
</g>
<g fill="None" fill-opacity="0.0" stroke="#5DBEE1" stroke-opacity="1.00" stroke-width="0.3"><path d="
M 254.00 208.00 
C 238.70 204.83 231.62 217.66 238.08 227.92 C 244.55 238.18 258.25 242.31 266.23 234.23 C 274.20 226.15 262.61 209.78 254.00 208.00
M 251.00 211.00 
C 257.37 212.32 267.30 225.71 262.00 232.00 C 256.70 238.29 245.57 232.17 240.25 225.75 C 234.93 219.33 238.68 208.45 251.00 211.00 Z"/>
</g>
<g fill="None" fill-opacity="0.0" stroke="#F9FDFE" stroke-opacity="1.00" stroke-width="0.3"><path d="
M 251.00 211.00 
C 238.68 208.45 234.93 219.33 240.25 225.75 C 245.57 232.17 256.70 238.29 262.00 232.00 C 267.30 225.71 257.37 212.32 251.00 211.00 Z"/>
</g>
<g fill="None" fill-opacity="0.0" stroke="#DFEDF4" stroke-opacity="1.00" stroke-width="0.3"><path d="
M 222.00 214.00 
C 219.18 212.63 216.42 216.86 219.32 218.66 C 222.22 220.46 224.53 215.23 222.00 214.00 Z"/>
</g>
<g fill="None" fill-opacity="0.0" stroke="#E5F4FA" stroke-opacity="1.00" stroke-width="0.3"><path d="
M 297.00 214.00 
C 294.18 212.63 291.42 216.86 294.32 218.66 C 297.22 220.46 299.53 215.23 297.00 214.00 Z"/>
</g>
<g fill="None" fill-opacity="0.0" stroke="#1F528C" stroke-opacity="1.00" stroke-width="0.3"><path d="
M 322.00 245.00 
C 319.94 246.44 317.98 248.37 316.00 250.00
C 313.62 251.95 312.05 252.98 309.00 254.00
C 283.31 262.56 236.72 266.16 222.00 236.00
C 218.43 231.34 216.46 227.35 214.00 222.00
C 213.63 221.20 212.32 219.82 212.00 219.00
C 214.16 235.22 220.46 251.13 234.30 260.70 C 248.15 270.27 269.12 275.18 283.93 269.93 C 298.74 264.67 314.72 259.89 322.00 245.00
M 280.00 266.00 
C 279.45 257.93 288.11 266.49 280.00 266.00
M 269.00 264.00 
C 268.75 269.59 263.38 264.31 269.00 264.00 Z"/>
</g>
<g fill="None" fill-opacity="0.0" stroke="#A5DDF5" stroke-opacity="1.00" stroke-width="0.3"><path d="
M 347.00 314.00 
C 348.47 313.86 355.41 313.79 357.00 313.00
C 370.38 286.64 378.34 253.94 371.00 225.00
C 369.22 236.88 360.89 245.72 350.07 250.07 C 339.26 254.43 344.18 272.83 334.77 280.77 C 325.36 288.71 343.12 304.59 334.00 315.00
C 338.49 314.63 342.39 314.00 347.00 314.00 Z"/>
</g>
<g fill="None" fill-opacity="0.0" stroke="#516098" stroke-opacity="1.00" stroke-width="0.3"><path d="
M 276.00 289.00 
C 265.75 291.50 253.89 292.60 242.98 291.02 C 232.06 289.45 223.28 288.05 213.32 283.68 C 203.36 279.31 201.00 274.71 192.70 267.30 C 184.39 259.89 187.74 247.21 187.00 238.00
C 184.24 234.41 184.98 229.16 182.00 226.00
C 182.05 235.18 177.27 244.58 169.00 249.00
C 179.73 265.03 189.96 279.06 207.77 288.23 C 225.58 297.40 253.23 301.70 273.33 297.33 C 293.43 292.96 314.30 289.70 326.00 272.00
C 310.98 282.38 292.88 284.88 276.00 289.00 Z"/>
</g>
<g fill="None" fill-opacity="0.0" stroke="#E2F3F8" stroke-opacity="1.00" stroke-width="0.3"><path d="
M 272.00 234.00 
C 269.18 232.63 266.42 236.86 269.32 238.66 C 272.22 240.46 274.53 235.23 272.00 234.00 Z"/>
</g>
<g fill="None" fill-opacity="0.0" stroke="#7F8ABE" stroke-opacity="1.00" stroke-width="0.3"><path d="
M 276.00 289.00 
C 238.00 292.68 201.03 273.74 187.00 238.00
C 187.74 247.21 184.39 259.89 192.70 267.30 C 201.00 274.71 203.36 279.31 213.32 283.68 C 223.28 288.05 232.06 289.45 242.98 291.02 C 253.89 292.60 265.75 291.50 276.00 289.00 Z"/>
</g>
<g fill="None" fill-opacity="0.0" stroke="#2D528A" stroke-opacity="1.00" stroke-width="0.3"><path d="
M 328.00 254.00 
C 327.49 254.60 333.26 254.52 334.00 254.00
C 336.63 250.32 338.84 246.00 341.00 242.00
C 337.79 246.73 331.53 249.81 328.00 254.00 Z"/>
</g>
<g fill="None" fill-opacity="0.0" stroke="#E1F3F8" stroke-opacity="1.00" stroke-width="0.3"><path d="
M 282.00 249.00 
C 289.94 249.39 281.82 241.38 282.00 249.00 Z"/>
</g>
<g fill="None" fill-opacity="0.0" stroke="#D6E8F1" stroke-opacity="1.00" stroke-width="0.3"><path d="
M 309.00 254.00 
C 312.05 252.98 313.62 251.95 316.00 250.00
C 317.24 241.62 309.10 253.92 309.00 254.00 Z"/>
</g>
<g fill="None" fill-opacity="0.0" stroke="#021730" stroke-opacity="0.89" stroke-width="0.3"><path d="
M 124.00 264.00 
C 126.91 258.34 115.20 249.27 111.75 255.75 C 108.31 262.24 106.15 263.24 100.31 267.31 C 94.46 271.37 103.76 281.65 109.00 279.00
C 106.28 290.86 126.01 290.44 124.00 279.00
C 136.02 280.64 136.16 261.93 124.00 264.00
M 117.00 263.00 
C 116.41 267.49 120.53 269.62 124.00 271.00
C 121.03 272.39 117.16 275.04 117.00 279.00
C 114.27 276.29 112.76 272.52 109.00 271.00
C 112.72 269.92 114.98 265.95 117.00 263.00 Z"/>
</g>
<g fill="None" fill-opacity="0.0" stroke="#D0DCE8" stroke-opacity="1.00" stroke-width="0.3"><path d="
M 280.00 266.00 
C 288.11 266.49 279.45 257.93 280.00 266.00 Z"/>
</g>
<g fill="None" fill-opacity="0.0" stroke="#97CCE5" stroke-opacity="0.98" stroke-width="0.3"><path d="
M 117.00 263.00 
C 114.98 265.95 112.72 269.92 109.00 271.00
C 112.76 272.52 114.27 276.29 117.00 279.00
C 117.16 275.04 121.03 272.39 124.00 271.00
C 120.53 269.62 116.41 267.49 117.00 263.00 Z"/>
</g>
<g fill="None" fill-opacity="0.0" stroke="#A5DCF5" stroke-opacity="1.00" stroke-width="0.3"><path d="
M 129.00 344.00 
C 127.21 346.55 129.12 355.68 129.00 359.00 C 128.88 362.32 127.53 371.03 129.00 374.00
C 132.08 378.27 139.81 375.47 145.00 376.00 C 150.19 376.53 157.52 375.95 163.00 376.00 C 168.48 376.05 175.57 376.39 181.00 376.00 C 186.43 375.61 194.01 377.08 199.00 376.00 C 203.99 374.92 212.16 378.69 216.00 376.00
C 215.38 373.57 217.27 369.59 215.00 368.00
C 197.17 373.33 179.87 356.72 191.00 340.00
C 168.90 343.00 164.82 317.18 180.00 306.00
C 174.54 302.38 171.40 296.32 171.00 290.00
C 170.52 287.34 170.45 285.63 171.00 283.00
C 174.46 275.37 173.43 268.81 167.00 263.00
C 167.00 289.67 167.00 316.33 167.00 343.00
C 161.25 343.84 152.45 341.88 147.00 343.00 C 141.55 344.12 132.72 340.28 129.00 344.00 Z"/>
</g>
<g fill="None" fill-opacity="0.0" stroke="#9DB6CE" stroke-opacity="1.00" stroke-width="0.3"><path d="
M 269.00 264.00 
C 263.38 264.31 268.75 269.59 269.00 264.00 Z"/>
</g>
<g fill="None" fill-opacity="0.0" stroke="#47588F" stroke-opacity="1.00" stroke-width="0.3"><path d="
M 185.00 297.00 
C 195.11 302.47 211.49 308.36 224.00 311.00
C 232.14 312.72 240.40 314.00 249.00 314.00
C 254.67 314.00 260.33 314.00 266.00 314.00
C 280.20 314.00 296.09 311.25 309.00 306.00
C 311.34 305.05 313.97 302.71 317.00 303.00
C 312.89 313.11 320.93 321.96 329.00 327.00
C 326.65 324.08 332.63 323.10 332.00 320.00
C 314.66 320.46 329.48 306.51 322.25 298.75 C 315.01 291.00 306.22 300.90 297.02 303.02 C 287.83 305.15 276.40 308.49 266.00 309.00 C 255.60 309.51 241.51 308.24 231.67 306.33 C 221.83 304.42 212.25 301.81 203.70 297.31 C 195.14 292.80 189.85 288.88 183.00 282.00
C 180.27 287.64 180.50 292.54 185.00 297.00 Z"/>
</g>
<g fill="None" fill-opacity="0.0" stroke="#476D88" stroke-opacity="1.00" stroke-width="0.3"><path d="
M 171.00 290.00 
C 170.86 287.75 170.81 285.25 171.00 283.00
C 170.45 285.63 170.52 287.34 171.00 290.00 Z"/>
</g>
<g fill="None" fill-opacity="0.0" stroke="#AACCE5" stroke-opacity="1.00" stroke-width="0.3"><path d="
M 185.00 297.00 
C 188.26 300.23 193.33 303.45 192.00 309.00
C 194.80 312.77 203.03 311.44 207.02 313.98 C 211.02 316.51 218.51 316.26 223.00 318.00
C 223.07 315.59 222.56 313.05 224.00 311.00
C 211.49 308.36 195.11 302.47 185.00 297.00 Z"/>
</g>
<g fill="None" fill-opacity="0.0" stroke="#90CBE6" stroke-opacity="1.00" stroke-width="0.3"><path d="
M 309.00 306.00 
C 309.96 306.17 312.72 308.85 313.00 310.00
C 313.31 311.26 312.71 312.74 313.00 314.00
C 313.59 316.53 317.35 317.53 318.00 320.00
C 310.80 324.02 306.58 327.05 300.75 333.75 C 294.92 340.46 286.03 341.54 277.00 341.00 C 267.97 340.46 256.12 341.74 247.78 339.22 C 239.43 336.71 236.37 325.83 226.00 330.00 C 215.63 334.17 217.94 324.43 210.30 318.70 C 202.66 312.96 190.57 322.38 185.00 318.00
C 183.09 321.66 181.67 323.76 186.00 326.00
C 190.45 327.50 196.78 325.72 201.00 327.00
C 208.90 329.40 214.81 338.21 204.25 344.25 C 193.69 350.29 207.74 359.62 213.75 351.75 C 219.77 343.88 222.32 338.10 231.98 338.02 C 241.63 337.95 244.83 350.30 238.75 356.75 C 232.68 363.21 228.64 369.52 235.00 376.00
C 244.21 376.18 241.83 360.48 253.00 361.00 C 264.18 361.52 259.67 378.31 267.00 380.00
C 274.01 380.49 274.89 374.46 275.00 369.00
C 275.21 358.41 276.31 357.63 283.00 351.00
C 293.55 340.56 295.28 356.73 302.00 363.00
C 304.90 364.57 312.47 368.90 315.00 364.00
C 316.35 349.14 298.54 343.89 310.00 331.00
C 319.96 319.80 330.73 334.09 340.08 340.92 C 349.43 347.74 370.40 353.74 371.00 336.00
C 368.32 342.94 345.15 338.48 350.00 329.00
C 347.81 329.37 345.23 329.00 343.00 329.00
C 340.20 329.27 337.90 329.72 335.00 329.00
C 332.70 328.43 331.10 328.29 329.00 327.00
C 320.93 321.96 312.89 313.11 317.00 303.00
C 313.97 302.71 311.34 305.05 309.00 306.00
M 213.00 346.00 
C 213.62 348.83 210.84 351.62 208.00 351.00
C 207.38 348.17 210.16 345.38 213.00 346.00
M 309.00 351.00 
C 313.51 352.49 313.21 363.46 307.00 362.00 C 300.78 360.53 303.93 349.32 309.00 351.00
M 270.00 360.00 
C 273.35 362.97 274.76 373.76 268.97 373.97 C 263.18 374.18 265.15 359.87 270.00 360.00
M 242.00 362.00 
C 242.65 364.66 241.02 368.11 238.00 368.00
C 237.35 365.34 238.98 361.89 242.00 362.00 Z"/>
</g>
<g fill="None" fill-opacity="0.0" stroke="#D5E6F3" stroke-opacity="1.00" stroke-width="0.3"><path d="
M 266.00 314.00 
C 260.65 314.52 254.28 314.51 249.00 314.00
C 240.40 314.00 232.14 312.72 224.00 311.00
C 222.56 313.05 223.07 315.59 223.00 318.00
C 218.51 316.26 211.02 316.51 207.02 313.98 C 203.03 311.44 194.80 312.77 192.00 309.00
C 191.38 311.58 186.37 315.38 185.00 318.00
C 190.57 322.38 202.66 312.96 210.30 318.70 C 217.94 324.43 215.63 334.17 226.00 330.00 C 236.37 325.83 239.43 336.71 247.78 339.22 C 256.12 341.74 267.97 340.46 277.00 341.00 C 286.03 341.54 294.92 340.46 300.75 333.75 C 306.58 327.05 310.80 324.02 318.00 320.00
C 317.35 317.53 313.59 316.53 313.00 314.00
C 311.19 319.47 301.09 320.22 295.78 322.78 C 290.46 325.33 279.90 326.04 272.99 326.99 C 266.08 327.94 254.19 326.52 247.00 326.00 C 239.81 325.48 232.72 322.29 226.00 320.00
C 240.36 318.77 258.72 318.85 273.00 317.00 C 287.28 315.15 299.78 307.34 313.00 310.00
C 312.72 308.85 309.96 306.17 309.00 306.00
C 296.09 311.25 280.20 314.00 266.00 314.00 Z"/>
</g>
<g fill="None" fill-opacity="0.0" stroke="#F9FCFE" stroke-opacity="1.00" stroke-width="0.3"><path d="
M 313.00 314.00 
C 312.71 312.74 313.31 311.26 313.00 310.00
C 299.78 307.34 287.28 315.15 273.00 317.00 C 258.72 318.85 240.36 318.77 226.00 320.00
C 232.72 322.29 239.81 325.48 247.00 326.00 C 254.19 326.52 266.08 327.94 272.99 326.99 C 279.90 326.04 290.46 325.33 295.78 322.78 C 301.09 320.22 311.19 319.47 313.00 314.00 Z"/>
</g>
<g fill="None" fill-opacity="0.0" stroke="#5E859E" stroke-opacity="1.00" stroke-width="0.3"><path d="
M 347.00 314.00 
C 350.17 314.00 354.58 314.74 357.00 313.00
C 355.41 313.79 348.47 313.86 347.00 314.00 Z"/>
</g>
<g fill="None" fill-opacity="0.0" stroke="#859AC0" stroke-opacity="1.00" stroke-width="0.3"><path d="
M 266.00 314.00 
C 260.33 314.00 254.67 314.00 249.00 314.00
C 254.28 314.51 260.65 314.52 266.00 314.00 Z"/>
</g>
<g fill="None" fill-opacity="0.0" stroke="#13273A" stroke-opacity="0.75" stroke-width="0.3"><path d="
M 127.00 322.00 
C 131.20 322.18 144.88 325.50 146.00 321.00
C 143.58 322.69 139.17 322.06 136.00 322.00
C 133.58 321.95 130.70 321.17 129.00 321.00
C 128.07 321.13 127.47 321.88 127.00 322.00 Z"/>
</g>
<g fill="None" fill-opacity="0.0" stroke="#1E1E3C" stroke-opacity="0.04" stroke-width="0.3"><path d="
M 136.00 322.00 
C 135.96 322.00 136.00 321.00 136.00 321.00
C 133.74 321.00 131.24 320.70 129.00 321.00
C 130.70 321.17 133.58 321.95 136.00 322.00 Z"/>
</g>
<g fill="None" fill-opacity="0.0" stroke="#172D3C" stroke-opacity="0.05" stroke-width="0.3"><path d="
M 136.00 322.00 
C 139.17 322.06 143.58 322.69 146.00 321.00
C 142.67 321.00 139.33 321.00 136.00 321.00
C 136.00 321.00 135.96 322.00 136.00 322.00 Z"/>
</g>
<g fill="None" fill-opacity="0.0" stroke="#3E7E9E" stroke-opacity="1.00" stroke-width="0.3"><path d="
M 201.00 327.00 
C 196.78 325.72 190.45 327.50 186.00 326.00
C 190.23 328.19 196.05 326.16 201.00 327.00 Z"/>
</g>
<g fill="None" fill-opacity="0.0" stroke="#409EC7" stroke-opacity="1.00" stroke-width="0.3"><path d="
M 310.00 331.00 
C 321.16 328.61 318.58 349.39 330.00 344.00 C 341.41 338.61 346.63 355.01 358.00 353.00 C 369.37 350.99 377.39 345.79 371.00 333.00
C 371.13 333.92 371.03 335.07 371.00 336.00
C 370.40 353.74 349.43 347.74 340.08 340.92 C 330.73 334.09 319.96 319.80 310.00 331.00 Z"/>
</g>
<g fill="None" fill-opacity="0.0" stroke="#F5F8FA" stroke-opacity="1.00" stroke-width="0.3"><path d="
M 350.00 329.00 
C 345.15 338.48 368.32 342.94 371.00 336.00
C 371.03 335.07 371.13 333.92 371.00 333.00
C 366.02 323.04 358.31 327.60 350.00 329.00 Z"/>
</g>
<g fill="None" fill-opacity="0.0" stroke="#4F758F" stroke-opacity="1.00" stroke-width="0.3"><path d="
M 343.00 329.00 
C 340.40 329.00 337.58 329.32 335.00 329.00
C 337.90 329.72 340.20 329.27 343.00 329.00 Z"/>
</g>
<g fill="None" fill-opacity="0.0" stroke="#4E718A" stroke-opacity="1.00" stroke-width="0.3"><path d="
M 129.00 374.00 
C 127.53 371.03 128.88 362.32 129.00 359.00 C 129.12 355.68 127.21 346.55 129.00 344.00
C 126.36 346.64 128.17 355.07 128.00 359.00 C 127.83 362.93 126.81 370.97 129.00 374.00 Z"/>
</g>
<g fill="None" fill-opacity="0.0" stroke="#E7F5FA" stroke-opacity="1.00" stroke-width="0.3"><path d="
M 213.00 346.00 
C 210.16 345.38 207.38 348.17 208.00 351.00
C 210.84 351.62 213.62 348.83 213.00 346.00 Z"/>
</g>
<g fill="None" fill-opacity="0.0" stroke="#52B1D6" stroke-opacity="1.00" stroke-width="0.3"><path d="
M 283.00 351.00 
C 290.61 349.26 295.44 355.19 298.00 361.00
C 299.06 361.94 300.76 362.33 302.00 363.00
C 295.28 356.73 293.55 340.56 283.00 351.00 Z"/>
</g>
<g fill="None" fill-opacity="0.0" stroke="#F2F9FC" stroke-opacity="1.00" stroke-width="0.3"><path d="
M 309.00 351.00 
C 303.93 349.32 300.78 360.53 307.00 362.00 C 313.21 363.46 313.51 352.49 309.00 351.00 Z"/>
</g>
<g fill="None" fill-opacity="0.0" stroke="#F6FAFD" stroke-opacity="1.00" stroke-width="0.3"><path d="
M 270.00 360.00 
C 265.15 359.87 263.18 374.18 268.97 373.97 C 274.76 373.76 273.35 362.97 270.00 360.00 Z"/>
</g>
<g fill="None" fill-opacity="0.0" stroke="#46A5CE" stroke-opacity="1.00" stroke-width="0.3"><path d="
M 235.00 376.00 
C 239.70 380.79 237.26 385.29 234.00 390.00
C 239.10 384.95 243.15 387.61 247.00 392.00
C 246.99 391.50 247.00 391.00 247.00 391.00
C 247.00 383.61 243.97 373.80 250.31 368.31 C 256.64 362.82 260.89 375.44 263.00 379.00
C 263.71 379.49 266.05 379.93 267.00 380.00
C 259.67 378.31 264.18 361.52 253.00 361.00 C 241.83 360.48 244.21 376.18 235.00 376.00 Z"/>
</g>
<g fill="None" fill-opacity="0.0" stroke="#3690BE" stroke-opacity="1.00" stroke-width="0.3"><path d="
M 315.00 364.00 
C 312.47 368.90 304.90 364.57 302.00 363.00
C 300.76 362.33 299.06 361.94 298.00 361.00
C 300.19 365.96 300.10 371.55 305.78 374.22 C 311.45 376.89 314.58 368.64 315.00 364.00 Z"/>
</g>
<g fill="None" fill-opacity="0.0" stroke="#F3F9FC" stroke-opacity="1.00" stroke-width="0.3"><path d="
M 242.00 362.00 
C 238.98 361.89 237.35 365.34 238.00 368.00
C 241.02 368.11 242.65 364.66 242.00 362.00 Z"/>
</g>
<g fill="None" fill-opacity="0.0" stroke="#4A6981" stroke-opacity="1.00" stroke-width="0.3"><path d="
M 215.00 368.00 
C 217.27 369.59 215.38 373.57 216.00 376.00
C 219.66 373.44 216.10 368.26 215.00 368.00 Z"/>
</g>
<g fill="None" fill-opacity="0.0" stroke="#3483B0" stroke-opacity="1.00" stroke-width="0.3"><path d="
M 267.00 380.00 
C 266.05 379.93 263.71 379.49 263.00 379.00
C 265.28 382.85 268.80 386.10 273.25 382.25 C 277.69 378.39 275.42 373.31 275.00 369.00
C 274.89 374.46 274.01 380.49 267.00 380.00 Z"/>
</g>
<g fill="None" fill-opacity="0.0" stroke="#57ADD1" stroke-opacity="1.00" stroke-width="0.3"><path d="
M 327.00 383.00 
C 336.93 390.58 314.96 394.91 321.00 382.00
C 322.00 382.00 323.00 382.00 324.00 382.00
C 322.13 379.62 318.58 379.43 316.00 378.00
C 313.13 384.46 314.52 393.38 323.33 395.67 C 332.14 397.96 336.49 388.21 327.00 383.00 Z"/>
</g>
<g fill="None" fill-opacity="0.0" stroke="#F1F9FB" stroke-opacity="1.00" stroke-width="0.3"><path d="
M 327.00 383.00 
C 326.05 382.48 324.87 382.41 324.00 382.00
C 323.00 382.00 322.00 382.00 321.00 382.00
C 314.96 394.91 336.93 390.58 327.00 383.00 Z"/>
</g>
<g fill="None" fill-opacity="0.0" stroke="#96CEE8" stroke-opacity="1.00" stroke-width="0.3"><path d="
M 234.00 390.00 
C 230.51 395.03 228.63 398.22 229.00 405.00
C 230.64 410.40 238.05 411.79 243.23 408.23 C 248.41 404.66 247.13 397.48 247.00 392.00
C 243.15 387.61 239.10 384.95 234.00 390.00
M 243.00 391.00 
C 247.90 394.10 242.61 407.83 236.78 404.22 C 230.94 400.61 239.17 388.58 243.00 391.00 Z"/>
</g>
<g fill="None" fill-opacity="0.0" stroke="#F6FBFD" stroke-opacity="1.00" stroke-width="0.3"><path d="
M 243.00 391.00 
C 239.17 388.58 230.94 400.61 236.78 404.22 C 242.61 407.83 247.90 394.10 243.00 391.00 Z"/>
</g>
<g fill="None" fill-opacity="0.0" stroke="#358AB9" stroke-opacity="1.00" stroke-width="0.3"><path d="
M 247.00 392.00 
C 247.13 397.48 248.41 404.66 243.23 408.23 C 238.05 411.79 230.64 410.40 229.00 405.00
C 229.48 413.89 238.86 419.09 245.25 413.25 C 251.63 407.40 250.46 396.36 247.00 391.00
C 247.00 391.00 246.99 391.50 247.00 392.00 Z"/>
</g>
<g fill="#000000" fill-opacity="0.00" stroke="None">
<path d="
M 0.00 500.00 
L 500.00 500.00
L 500.00 0.00
L 0.00 0.00
L 0.00 500.00
M 332.00 72.00 
C 334.27 71.91 336.56 71.47 339.00 72.00
C 339.91 72.00 341.11 71.81 342.00 72.00
C 345.58 72.77 345.05 77.35 345.00 80.00
C 348.01 79.42 350.56 77.17 354.00 78.00
C 354.08 82.12 362.55 83.32 361.97 88.03 C 361.40 92.74 355.04 95.10 357.00 101.00
C 365.30 107.53 358.71 118.99 348.31 117.69 C 337.90 116.40 349.49 130.30 355.10 134.90 C 360.71 139.50 365.97 148.60 370.77 155.23 C 375.57 161.86 379.65 170.48 383.31 178.69 C 386.96 186.91 389.79 196.55 391.98 206.02 C 394.16 215.50 395.40 225.86 396.00 236.00 C 396.60 246.14 395.24 259.29 395.00 269.00 C 394.76 278.71 388.90 289.11 388.22 298.22 C 387.54 307.34 376.58 315.90 379.33 324.67 C 382.08 333.45 388.88 342.24 384.22 352.22 C 379.56 362.20 374.68 365.55 364.33 368.33 C 353.97 371.10 344.07 362.10 336.00 370.00
C 337.63 380.39 348.80 381.82 347.07 393.08 C 345.33 404.35 333.73 410.02 323.00 408.00 C 312.27 405.98 306.73 398.10 303.00 389.00
C 290.05 389.66 279.24 401.60 266.00 398.00
C 262.44 411.09 255.48 430.02 238.93 429.93 C 222.38 429.84 212.00 413.77 214.00 398.00
C 197.79 397.10 180.06 399.20 164.00 398.00 C 147.94 396.80 131.01 401.78 116.78 394.22 C 102.54 386.67 108.67 366.36 107.00 353.00 C 105.33 339.64 110.90 321.75 127.00 322.00
C 127.47 321.88 128.07 321.13 129.00 321.00
C 131.24 320.70 133.74 321.00 136.00 321.00
C 139.33 321.00 142.67 321.00 146.00 321.00
C 148.66 310.33 144.61 297.99 146.00 287.00 C 147.39 276.01 144.96 264.07 146.00 253.00
C 136.83 249.99 134.22 242.25 127.26 236.74 C 120.29 231.23 116.77 218.99 118.00 210.00 C 119.23 201.01 125.60 193.44 128.77 184.77 C 131.94 176.10 145.31 175.03 147.00 167.00
C 135.22 166.48 121.90 169.93 113.25 160.75 C 104.59 151.57 107.45 140.17 107.00 128.00
C 107.00 123.68 106.84 119.32 107.00 115.00
C 107.33 106.29 110.09 97.86 119.08 94.08 C 128.06 90.30 140.69 92.50 151.00 92.00 C 161.31 91.50 174.70 92.52 185.00 92.00 C 195.30 91.48 208.06 93.74 217.02 90.02 C 225.99 86.31 236.71 84.84 246.00 85.00 C 255.29 85.16 267.71 83.71 276.00 87.00 C 284.29 90.28 295.27 88.47 301.22 94.78
C 304.97 94.86 307.85 90.37 311.00 91.00
C 309.40 85.18 314.04 83.72 317.00 81.00
C 318.12 79.97 317.16 79.89 319.00 79.00
C 321.42 77.83 323.10 78.56 326.00 79.00
C 327.99 77.04 325.66 72.92 329.00 72.00
C 330.05 71.35 330.31 71.86 332.00 72.00
M 394.00 125.00 
C 403.20 123.30 401.59 139.75 393.00 138.00
C 395.43 148.09 378.64 147.65 380.00 138.00
C 371.07 139.24 370.30 122.49 380.00 125.00
C 377.81 114.22 395.89 114.57 394.00 125.00
M 124.00 264.00 
C 136.16 261.93 136.02 280.64 124.00 279.00
C 126.01 290.44 106.28 290.86 109.00 279.00
C 103.76 281.65 94.46 271.37 100.31 267.31 C 106.15 263.24 108.31 262.24 111.75 255.75 C 115.20 249.27 126.91 258.34 124.00 264.00 Z"/>
</g>
<g fill="#071B34" fill-opacity="0.72" stroke="None">
<path d="
M 329.00 72.00 
C 330.39 75.45 340.42 71.56 342.00 72.00
C 341.11 71.81 339.91 72.00 339.00 72.00
C 336.69 72.00 334.30 72.19 332.00 72.00
C 330.31 71.86 330.05 71.35 329.00 72.00 Z"/>
</g>
<g fill="#00004E" fill-opacity="0.01" stroke="None">
<path d="
M 332.00 72.00 
C 334.30 72.19 336.69 72.00 339.00 72.00
C 336.56 71.47 334.27 71.91 332.00 72.00 Z"/>
</g>
<g fill="#021730" fill-opacity="0.97" stroke="None">
<path d="
M 319.00 79.00 
C 322.47 79.09 315.40 81.83 317.00 81.00
C 314.04 83.72 309.40 85.18 311.00 91.00
C 311.30 92.08 319.17 102.70 312.77 103.77 C 306.37 104.83 304.63 97.55 302.00 95.00
C 295.27 88.47 284.29 90.28 276.00 87.00 C 267.71 83.71 255.29 85.16 246.00 85.00 C 236.71 84.84 225.99 86.31 217.02 90.02 C 208.06 93.74 195.30 91.48 185.00 92.00 C 174.70 92.52 161.31 91.50 151.00 92.00 C 140.69 92.50 128.06 90.30 119.08 94.08 C 110.09 97.86 107.33 106.29 107.00 115.00
C 107.23 118.95 107.38 124.07 107.00 128.00
C 107.45 140.17 104.59 151.57 113.25 160.75 C 121.90 169.93 135.22 166.48 147.00 167.00
C 145.31 175.03 131.94 176.10 128.77 184.77 C 125.60 193.44 119.23 201.01 118.00 210.00 C 116.77 218.99 120.29 231.23 127.26 236.74 C 134.22 242.25 136.83 249.99 146.00 253.00
C 144.96 264.07 147.39 276.01 146.00 287.00 C 144.61 297.99 148.66 310.33 146.00 321.00
C 144.88 325.50 131.20 322.18 127.00 322.00
C 110.90 321.75 105.33 339.64 107.00 353.00 C 108.67 366.36 102.54 386.67 116.78 394.22 C 131.01 401.78 147.94 396.80 164.00 398.00 C 180.06 399.20 197.79 397.10 214.00 398.00
C 212.00 413.77 222.38 429.84 238.93 429.93 C 255.48 430.02 262.44 411.09 266.00 398.00
C 279.24 401.60 290.05 389.66 303.00 389.00
C 306.73 398.10 312.27 405.98 323.00 408.00 C 333.73 410.02 345.33 404.35 347.07 393.08 C 348.80 381.82 337.63 380.39 336.00 370.00
C 344.07 362.10 353.97 371.10 364.33 368.33 C 374.68 365.55 379.56 362.20 384.22 352.22 C 388.88 342.24 382.08 333.45 379.33 324.67 C 376.58 315.90 387.54 307.34 388.22 298.22 C 388.90 289.11 394.76 278.71 395.00 269.00 C 395.24 259.29 396.60 246.14 396.00 236.00 C 395.40 225.86 394.16 215.50 391.98 206.02 C 389.79 196.55 386.96 186.91 383.31 178.69 C 379.65 170.48 375.57 161.86 370.77 155.23 C 365.97 148.60 360.71 139.50 355.10 134.90 C 349.49 130.30 337.90 116.40 348.31 117.69 C 358.71 118.99 365.30 107.53 357.00 101.00
C 355.04 95.10 361.40 92.74 361.97 88.03 C 362.55 83.32 354.08 82.12 354.00 78.00
C 350.56 77.17 348.01 79.42 345.00 80.00
C 345.05 77.35 345.58 72.77 342.00 72.00
C 340.42 71.56 330.39 75.45 329.00 72.00
C 325.66 72.92 327.99 77.04 326.00 79.00
C 323.10 78.56 321.42 77.83 319.00 79.00
M 340.00 90.00 
C 347.73 82.31 354.31 103.51 342.00 99.00
C 340.99 102.88 345.21 103.46 348.00 103.00
C 349.06 109.71 343.40 108.91 340.00 106.00
C 343.71 115.27 329.34 115.32 333.00 106.00
C 329.43 107.81 325.64 110.43 324.00 104.00
C 326.51 102.30 332.10 104.02 331.00 99.00
C 318.09 104.02 324.20 83.72 333.00 89.00
C 331.05 81.60 343.51 82.67 340.00 90.00
M 296.00 108.00 
C 312.44 115.69 326.08 127.99 335.00 144.00
C 336.16 146.08 337.05 148.62 338.00 151.00
C 338.56 152.40 340.93 153.82 340.00 156.00
C 335.28 150.24 328.78 144.95 324.00 139.00
C 296.81 118.78 261.58 113.98 229.78 124.78 C 197.97 135.58 183.31 164.11 179.00 195.00
C 177.68 186.71 171.42 178.87 163.00 177.00
C 163.00 174.00 163.00 171.00 163.00 168.00
C 163.34 165.08 164.70 162.32 166.00 160.00
C 175.07 135.73 188.38 117.61 213.08 106.08 C 237.77 94.55 271.07 96.34 296.00 108.00
M 129.00 143.00 
C 126.76 139.90 127.92 133.12 128.00 129.00 C 128.08 124.88 126.70 117.18 129.00 114.00
C 133.39 107.92 147.59 113.65 155.00 112.00 C 162.41 110.35 175.11 113.24 183.00 112.00
C 174.28 122.16 164.94 132.41 161.00 145.00
C 150.65 143.72 137.76 147.60 129.00 143.00
M 322.00 145.00 
C 323.00 145.96 324.08 147.06 325.00 148.00
C 350.52 174.02 358.71 209.18 341.00 242.00
C 338.84 246.00 336.63 250.32 334.00 254.00
C 318.97 275.04 290.17 282.19 266.00 283.00 C 241.83 283.81 214.25 272.04 201.25 250.75 C 188.25 229.46 179.44 195.28 192.00 172.00
C 200.95 146.81 217.84 130.15 245.02 125.02 C 272.20 119.90 302.26 126.14 322.00 145.00
M 365.00 192.00 
C 369.73 207.57 367.57 231.28 351.00 239.00
C 359.16 225.78 361.07 210.03 360.00 194.00
C 357.69 186.89 356.89 178.99 352.00 173.00
C 359.11 176.29 363.97 184.43 365.00 192.00
M 165.00 184.00 
C 170.70 186.10 172.27 190.81 174.00 196.00
C 176.22 202.65 178.00 209.37 178.00 217.00
C 178.00 227.27 176.26 237.19 166.77 242.77 C 157.28 248.35 148.64 241.96 142.00 235.00
C 145.51 231.43 148.20 227.18 150.00 223.00
C 152.90 213.57 150.53 197.70 139.00 196.00
C 139.77 184.85 156.08 180.70 165.00 184.00
M 131.00 219.00 
C 130.42 214.30 130.58 208.95 133.00 205.00
C 138.89 195.38 146.08 210.38 144.00 219.00 C 141.92 227.62 132.72 232.86 131.00 219.00
M 357.00 313.00 
C 354.58 314.74 350.17 314.00 347.00 314.00
C 342.39 314.00 338.49 314.63 334.00 315.00
C 343.12 304.59 325.36 288.71 334.77 280.77 C 344.18 272.83 339.26 254.43 350.07 250.07 C 360.89 245.72 369.22 236.88 371.00 225.00
C 378.34 253.94 370.38 286.64 357.00 313.00
M 187.00 238.00 
C 201.03 273.74 238.00 292.68 276.00 289.00
C 292.88 284.88 310.98 282.38 326.00 272.00
C 314.30 289.70 293.43 292.96 273.33 297.33 C 253.23 301.70 225.58 297.40 207.77 288.23 C 189.96 279.06 179.73 265.03 169.00 249.00
C 177.27 244.58 182.05 235.18 182.00 226.00
C 184.98 229.16 184.24 234.41 187.00 238.00
M 171.00 283.00 
C 170.81 285.25 170.86 287.75 171.00 290.00
C 171.40 296.32 174.54 302.38 180.00 306.00
C 164.82 317.18 168.90 343.00 191.00 340.00
C 179.87 356.72 197.17 373.33 215.00 368.00
C 216.10 368.26 219.66 373.44 216.00 376.00
C 212.16 378.69 203.99 374.92 199.00 376.00 C 194.01 377.08 186.43 375.61 181.00 376.00 C 175.57 376.39 168.48 376.05 163.00 376.00 C 157.52 375.95 150.19 376.53 145.00 376.00 C 139.81 375.47 132.08 378.27 129.00 374.00
C 126.81 370.97 127.83 362.93 128.00 359.00 C 128.17 355.07 126.36 346.64 129.00 344.00
C 132.72 340.28 141.55 344.12 147.00 343.00 C 152.45 341.88 161.25 343.84 167.00 343.00
C 167.00 316.33 167.00 289.67 167.00 263.00
C 173.43 268.81 174.46 275.37 171.00 283.00
M 329.00 327.00 
C 331.10 328.29 332.70 328.43 335.00 329.00
C 337.58 329.32 340.40 329.00 343.00 329.00
C 345.23 329.00 347.81 329.37 350.00 329.00
C 358.31 327.60 366.02 323.04 371.00 333.00
C 377.39 345.79 369.37 350.99 358.00 353.00 C 346.63 355.01 341.41 338.61 330.00 344.00 C 318.58 349.39 321.16 328.61 310.00 331.00
C 298.54 343.89 316.35 349.14 315.00 364.00
C 314.58 368.64 311.45 376.89 305.78 374.22 C 300.10 371.55 300.19 365.96 298.00 361.00
C 295.44 355.19 290.61 349.26 283.00 351.00
C 276.31 357.63 275.21 358.41 275.00 369.00
C 275.42 373.31 277.69 378.39 273.25 382.25 C 268.80 386.10 265.28 382.85 263.00 379.00
C 260.89 375.44 256.64 362.82 250.31 368.31 C 243.97 373.80 247.00 383.61 247.00 391.00
C 250.46 396.36 251.63 407.40 245.25 413.25 C 238.86 419.09 229.48 413.89 229.00 405.00
C 228.63 398.22 230.51 395.03 234.00 390.00
C 237.26 385.29 239.70 380.79 235.00 376.00
C 228.64 369.52 232.68 363.21 238.75 356.75 C 244.83 350.30 241.63 337.95 231.98 338.02 C 222.32 338.10 219.77 343.88 213.75 351.75 C 207.74 359.62 193.69 350.29 204.25 344.25 C 214.81 338.21 208.90 329.40 201.00 327.00
C 196.05 326.16 190.23 328.19 186.00 326.00
C 181.67 323.76 183.09 321.66 185.00 318.00
C 186.37 315.38 191.38 311.58 192.00 309.00
C 193.33 303.45 188.26 300.23 185.00 297.00
C 180.50 292.54 180.27 287.64 183.00 282.00
C 189.85 288.88 195.14 292.80 203.70 297.31 C 212.25 301.81 221.83 304.42 231.67 306.33 C 241.51 308.24 255.60 309.51 266.00 309.00 C 276.40 308.49 287.83 305.15 297.02 303.02 C 306.22 300.90 315.01 291.00 322.25 298.75 C 329.48 306.51 314.66 320.46 332.00 320.00
C 332.63 323.10 326.65 324.08 329.00 327.00
M 324.00 382.00 
C 324.87 382.41 326.05 382.48 327.00 383.00
C 336.49 388.21 332.14 397.96 323.33 395.67 C 314.52 393.38 313.13 384.46 316.00 378.00
C 318.58 379.43 322.13 379.62 324.00 382.00 Z"/>
</g>
<g fill="#1B2E40" fill-opacity="0.47" stroke="None">
<path d="
M 317.00 81.00 
C 315.40 81.83 322.47 79.09 319.00 79.00
C 317.16 79.89 318.12 79.97 317.00 81.00 Z"/>
</g>
<g fill="#92CCE6" fill-opacity="1.00" stroke="None">
<path d="
M 340.00 90.00 
C 343.51 82.67 331.05 81.60 333.00 89.00
C 324.20 83.72 318.09 104.02 331.00 99.00
C 332.10 104.02 326.51 102.30 324.00 104.00
C 325.64 110.43 329.43 107.81 333.00 106.00
C 329.34 115.32 343.71 115.27 340.00 106.00
C 343.40 108.91 349.06 109.71 348.00 103.00
C 345.21 103.46 340.99 102.88 342.00 99.00
C 354.31 103.51 347.73 82.31 340.00 90.00
M 340.00 95.00 
C 338.95 89.11 345.89 94.99 340.00 95.00 Z"/>
</g>
<g fill="#959DA6" fill-opacity="0.89" stroke="None">
<path d="
M 302.00 95.00 
C 304.63 97.55 306.37 104.83 312.77 103.77 C 319.17 102.70 311.30 92.08 311.00 91.00
C 307.85 90.37 304.97 94.86 302.00 95.00 Z"/>
</g>
<g fill="#244054" fill-opacity="1.00" stroke="None">
<path d="
M 340.00 95.00 
C 345.89 94.99 338.95 89.11 340.00 95.00 Z"/>
</g>
<g fill="#F0F3F5" fill-opacity="1.00" stroke="None">
<path d="
M 166.00 160.00 
C 192.77 112.47 245.45 94.46 296.00 108.00
C 271.07 96.34 237.77 94.55 213.08 106.08 C 188.38 117.61 175.07 135.73 166.00 160.00 Z"/>
</g>
<g fill="#BFCBE7" fill-opacity="1.00" stroke="None">
<path d="
M 166.00 160.00 
C 164.70 162.32 163.34 165.08 163.00 168.00
C 164.42 177.44 175.48 163.35 177.75 157.75 C 180.03 152.16 187.52 144.98 192.75 139.75 C 197.98 134.53 204.23 129.29 211.08 125.08 C 217.93 120.87 226.77 117.16 235.02 115.02 C 243.28 112.89 254.74 110.19 264.00 111.00 C 273.26 111.81 283.21 113.67 291.69 116.31 C 300.17 118.95 306.12 123.36 313.70 127.30 C 321.28 131.25 325.60 137.70 332.00 143.00
C 332.63 143.52 335.62 144.54 335.00 144.00
C 326.08 127.99 312.44 115.69 296.00 108.00
C 245.45 94.46 192.77 112.47 166.00 160.00 Z"/>
</g>
<g fill="#7E89BC" fill-opacity="1.00" stroke="None">
<path d="
M 163.00 168.00 
C 163.00 171.00 163.00 174.00 163.00 177.00
C 171.42 178.87 177.68 186.71 179.00 195.00
C 183.31 164.11 197.97 135.58 229.78 124.78 C 261.58 113.98 296.81 118.78 324.00 139.00
C 325.61 140.20 327.64 141.64 329.00 143.00
C 331.65 144.64 331.66 142.93 332.00 143.00
C 325.60 137.70 321.28 131.25 313.70 127.30 C 306.12 123.36 300.17 118.95 291.69 116.31 C 283.21 113.67 273.26 111.81 264.00 111.00 C 254.74 110.19 243.28 112.89 235.02 115.02 C 226.77 117.16 217.93 120.87 211.08 125.08 C 204.23 129.29 197.98 134.53 192.75 139.75 C 187.52 144.98 180.03 152.16 177.75 157.75 C 175.48 163.35 164.42 177.44 163.00 168.00 Z"/>
</g>
<g fill="#A6DDF6" fill-opacity="1.00" stroke="None">
<path d="
M 129.00 114.00 
C 127.50 117.03 128.86 124.45 129.00 128.00 C 129.14 131.55 127.42 139.81 129.00 143.00
C 137.76 147.60 150.65 143.72 161.00 145.00
C 164.94 132.41 174.28 122.16 183.00 112.00
C 175.11 113.24 162.41 110.35 155.00 112.00 C 147.59 113.65 133.39 107.92 129.00 114.00 Z"/>
</g>
<g fill="#537993" fill-opacity="1.00" stroke="None">
<path d="
M 129.00 143.00 
C 127.42 139.81 129.14 131.55 129.00 128.00 C 128.86 124.45 127.50 117.03 129.00 114.00
C 126.70 117.18 128.08 124.88 128.00 129.00 C 127.92 133.12 126.76 139.90 129.00 143.00 Z"/>
</g>
<g fill="#121736" fill-opacity="0.05" stroke="None">
<path d="
M 107.00 128.00 
C 107.38 124.07 107.23 118.95 107.00 115.00
C 106.84 119.32 107.00 123.68 107.00 128.00 Z"/>
</g>
<g fill="#02162F" fill-opacity="0.88" stroke="None">
<path d="
M 394.00 125.00 
C 395.89 114.57 377.81 114.22 380.00 125.00
C 370.30 122.49 371.07 139.24 380.00 138.00
C 378.64 147.65 395.43 148.09 393.00 138.00
C 401.59 139.75 403.20 123.30 394.00 125.00
M 391.00 130.00 
C 391.16 132.52 386.69 132.68 388.00 136.00
C 385.04 136.57 386.60 131.07 383.00 132.00
C 382.84 129.48 387.31 129.32 386.00 126.00
C 388.38 126.63 387.95 130.57 391.00 130.00 Z"/>
</g>
<g fill="#4172AF" fill-opacity="1.00" stroke="None">
<path d="
M 192.00 172.00 
C 217.75 124.29 280.76 115.88 322.00 148.00
C 320.05 145.81 321.90 144.72 322.00 145.00
C 302.26 126.14 272.20 119.90 245.02 125.02 C 217.84 130.15 200.95 146.81 192.00 172.00 Z"/>
</g>
<g fill="#82B8D1" fill-opacity="0.97" stroke="None">
<path d="
M 391.00 130.00 
C 387.95 130.57 388.38 126.63 386.00 126.00
C 387.31 129.32 382.84 129.48 383.00 132.00
C 386.60 131.07 385.04 136.57 388.00 136.00
C 386.69 132.68 391.16 132.52 391.00 130.00 Z"/>
</g>
<g fill="#1F2C5F" fill-opacity="1.00" stroke="None">
<path d="
M 192.00 172.00 
C 179.44 195.28 188.25 229.46 201.25 250.75 C 214.25 272.04 241.83 283.81 266.00 283.00 C 290.17 282.19 318.97 275.04 334.00 254.00
C 333.26 254.52 327.49 254.60 328.00 254.00
C 329.89 247.25 336.76 243.48 339.30 236.30 C 341.85 229.13 344.83 221.30 345.00 213.00
C 345.09 208.71 345.23 204.29 345.00 200.00
C 344.84 197.08 344.40 194.82 344.00 192.00
C 342.59 187.16 340.13 181.93 338.00 177.00
C 337.39 175.58 334.96 171.48 335.00 170.00
C 334.03 170.62 329.82 169.60 329.00 169.00
C 329.52 172.88 327.82 176.76 326.00 180.00
C 325.02 181.75 322.87 182.81 323.00 185.00
C 331.24 189.68 332.88 196.84 336.97 205.03 C 341.06 213.21 332.73 226.29 337.00 232.00
C 330.89 232.17 328.83 241.93 322.00 244.00
C 321.83 244.43 322.00 245.00 322.00 245.00
C 314.72 259.89 298.74 264.67 283.93 269.93 C 269.12 275.18 248.15 270.27 234.30 260.70 C 220.46 251.13 214.16 235.22 212.00 219.00
C 211.64 216.29 210.95 213.97 211.00 211.00
C 211.10 204.84 212.86 197.65 215.00 192.00
C 218.30 183.29 223.31 178.28 230.25 171.25 C 237.18 164.22 244.77 161.91 254.23 158.23 C 263.69 154.54 278.46 159.31 288.00 159.00
C 294.40 158.79 301.91 150.82 309.00 153.00 C 316.09 155.18 321.70 156.80 326.00 163.00
C 327.99 162.27 331.14 162.46 332.00 160.00
C 329.19 156.18 325.91 152.74 323.00 149.00
C 322.79 148.73 322.27 148.21 322.00 148.00
C 280.76 115.88 217.75 124.29 192.00 172.00
M 302.00 139.00 
C 305.05 140.72 301.22 146.07 298.33 143.67 C 295.43 141.26 298.94 137.27 302.00 139.00
M 225.00 158.00 
C 219.11 159.05 224.99 152.11 225.00 158.00 Z"/>
</g>
<g fill="#CACFE4" fill-opacity="1.00" stroke="None">
<path d="
M 302.00 139.00 
C 298.94 137.27 295.43 141.26 298.33 143.67 C 301.22 146.07 305.05 140.72 302.00 139.00 Z"/>
</g>
<g fill="#35446C" fill-opacity="1.00" stroke="None">
<path d="
M 338.00 151.00 
C 336.95 149.84 331.31 145.31 329.00 143.00
C 327.64 141.64 325.61 140.20 324.00 139.00
C 328.78 144.95 335.28 150.24 340.00 156.00
C 340.93 153.82 338.56 152.40 338.00 151.00 Z"/>
</g>
<g fill="#5B689E" fill-opacity="1.00" stroke="None">
<path d="
M 338.00 151.00 
C 337.05 148.62 336.16 146.08 335.00 144.00
C 335.62 144.54 332.63 143.52 332.00 143.00
C 331.66 142.93 331.65 144.64 329.00 143.00
C 331.31 145.31 336.95 149.84 338.00 151.00 Z"/>
</g>
<g fill="#8698C4" fill-opacity="1.00" stroke="None">
<path d="
M 322.00 148.00 
C 322.27 148.21 322.79 148.73 323.00 149.00
C 322.33 148.68 324.88 147.98 325.00 148.00
C 324.08 147.06 323.00 145.96 322.00 145.00
C 321.90 144.72 320.05 145.81 322.00 148.00 Z"/>
</g>
<g fill="#E2E6EB" fill-opacity="1.00" stroke="None">
<path d="
M 323.00 149.00 
C 325.91 152.74 329.19 156.18 332.00 160.00
C 333.71 162.32 334.75 164.39 336.00 167.00
C 338.28 171.77 340.34 176.74 342.00 182.00
C 343.10 185.47 343.47 188.32 344.00 192.00
C 344.40 194.82 344.84 197.08 345.00 200.00
C 345.70 204.29 345.51 208.82 345.00 213.00
C 344.83 221.30 341.85 229.13 339.30 236.30 C 336.76 243.48 329.89 247.25 328.00 254.00
C 331.53 249.81 337.79 246.73 341.00 242.00
C 358.71 209.18 350.52 174.02 325.00 148.00
C 324.88 147.98 322.33 148.68 323.00 149.00 Z"/>
</g>
<g fill="#C9D7EE" fill-opacity="1.00" stroke="None">
<path d="
M 288.00 159.00 
C 284.87 161.37 282.67 165.42 279.00 168.00
C 278.22 172.63 285.55 176.53 288.00 172.00
C 284.41 172.74 284.98 169.53 285.00 167.00
C 286.84 167.76 288.62 168.54 288.00 171.00
C 292.26 172.52 293.40 180.52 298.70 182.30 C 304.00 184.08 310.41 186.15 315.00 188.00
C 314.77 184.72 318.79 184.72 321.00 184.00
C 322.17 183.37 325.12 181.13 326.00 180.00
C 327.82 176.76 329.52 172.88 329.00 169.00
C 328.72 166.92 327.18 164.70 326.00 163.00
C 321.70 156.80 316.09 155.18 309.00 153.00 C 301.91 150.82 294.40 158.79 288.00 159.00
M 311.00 156.00 
C 315.23 157.34 323.73 168.57 316.75 171.75 C 309.77 174.93 303.85 172.26 298.25 165.75 C 292.64 159.24 302.89 153.44 311.00 156.00 Z"/>
</g>
<g fill="#C2C3D3" fill-opacity="1.00" stroke="None">
<path d="
M 225.00 158.00 
C 224.99 152.11 219.11 159.05 225.00 158.00 Z"/>
</g>
<g fill="#FBFDFE" fill-opacity="1.00" stroke="None">
<path d="
M 311.00 156.00 
C 302.89 153.44 292.64 159.24 298.25 165.75 C 303.85 172.26 309.77 174.93 316.75 171.75 C 323.73 168.57 315.23 157.34 311.00 156.00 Z"/>
</g>
<g fill="#28457E" fill-opacity="1.00" stroke="None">
<path d="
M 215.00 192.00 
C 220.72 181.06 234.92 182.01 243.68 174.68 C 252.44 167.35 271.82 173.05 279.00 168.00
C 282.67 165.42 284.87 161.37 288.00 159.00
C 278.46 159.31 263.69 154.54 254.23 158.23 C 244.77 161.91 237.18 164.22 230.25 171.25 C 223.31 178.28 218.30 183.29 215.00 192.00
M 258.00 166.00 
C 255.14 171.30 252.74 162.63 258.00 166.00 Z"/>
</g>
<g fill="#3D508A" fill-opacity="1.00" stroke="None">
<path d="
M 326.00 163.00 
C 327.18 164.70 328.72 166.92 329.00 169.00
C 329.82 169.60 334.03 170.62 335.00 170.00
C 335.03 169.06 335.96 168.16 336.00 167.00
C 334.75 164.39 333.71 162.32 332.00 160.00
C 331.14 162.46 327.99 162.27 326.00 163.00 Z"/>
</g>
<g fill="#D0D6E4" fill-opacity="1.00" stroke="None">
<path d="
M 258.00 166.00 
C 252.74 162.63 255.14 171.30 258.00 166.00 Z"/>
</g>
<g fill="#FAFBFD" fill-opacity="1.00" stroke="None">
<path d="
M 288.00 172.00 
C 288.21 171.61 288.00 171.00 288.00 171.00
C 288.62 168.54 286.84 167.76 285.00 167.00
C 284.98 169.53 284.41 172.74 288.00 172.00 Z"/>
</g>
<g fill="#657AAC" fill-opacity="1.00" stroke="None">
<path d="
M 335.00 170.00 
C 334.96 171.48 337.39 175.58 338.00 177.00
C 338.86 178.57 341.21 180.34 342.00 182.00
C 340.34 176.74 338.28 171.77 336.00 167.00
C 335.96 168.16 335.03 169.06 335.00 170.00 Z"/>
</g>
<g fill="#265B95" fill-opacity="1.00" stroke="None">
<path d="
M 215.00 192.00 
C 212.86 197.65 211.10 204.84 211.00 211.00
C 212.71 205.68 222.50 202.60 227.08 198.08 C 231.67 193.57 239.94 191.09 246.25 188.80 C 252.55 186.51 262.90 184.98 271.00 185.00 C 279.10 185.02 291.08 184.67 299.00 187.00
C 300.30 187.38 301.18 188.70 302.00 189.00
C 309.05 187.57 315.99 192.98 323.07 194.93 C 330.16 196.88 332.10 205.87 334.00 213.00 C 335.90 220.14 328.20 228.20 326.00 234.00
C 325.53 235.25 325.54 236.66 325.00 238.00
C 330.30 230.73 338.43 219.07 335.00 209.00 C 331.57 198.93 324.97 192.90 321.00 184.00
C 318.79 184.72 314.77 184.72 315.00 188.00
C 310.41 186.15 304.00 184.08 298.70 182.30 C 293.40 180.52 292.26 172.52 288.00 171.00
C 288.00 171.00 288.21 171.61 288.00 172.00
C 285.55 176.53 278.22 172.63 279.00 168.00
C 271.82 173.05 252.44 167.35 243.68 174.68 C 234.92 182.01 220.72 181.06 215.00 192.00
M 246.00 180.00 
C 248.18 182.18 244.62 186.98 241.78 184.22 C 238.94 181.46 244.35 178.35 246.00 180.00 Z"/>
</g>
<g fill="#838EBE" fill-opacity="1.00" stroke="None">
<path d="
M 360.00 194.00 
C 360.86 196.65 361.83 201.90 364.00 203.00
C 364.62 199.44 365.39 195.84 365.00 192.00
C 363.97 184.43 359.11 176.29 352.00 173.00
C 356.89 178.99 357.69 186.89 360.00 194.00 Z"/>
</g>
<g fill="#3E5A91" fill-opacity="1.00" stroke="None">
<path d="
M 344.00 192.00 
C 343.47 188.32 343.10 185.47 342.00 182.00
C 341.21 180.34 338.86 178.57 338.00 177.00
C 340.13 181.93 342.59 187.16 344.00 192.00 Z"/>
</g>
<g fill="#E5EEF4" fill-opacity="1.00" stroke="None">
<path d="
M 246.00 180.00 
C 244.35 178.35 238.94 181.46 241.78 184.22 C 244.62 186.98 248.18 182.18 246.00 180.00 Z"/>
</g>
<g fill="#23487B" fill-opacity="1.00" stroke="None">
<path d="
M 321.00 184.00 
C 324.97 192.90 331.57 198.93 335.00 209.00 C 338.43 219.07 330.30 230.73 325.00 238.00
C 324.16 240.10 322.82 241.90 322.00 244.00
C 328.83 241.93 330.89 232.17 337.00 232.00
C 332.73 226.29 341.06 213.21 336.97 205.03 C 332.88 196.84 331.24 189.68 323.00 185.00
C 322.87 182.81 325.02 181.75 326.00 180.00
C 325.12 181.13 322.17 183.37 321.00 184.00 Z"/>
</g>
<g fill="#848FC1" fill-opacity="1.00" stroke="None">
<path d="
M 150.00 223.00 
C 150.20 224.20 150.42 225.78 152.00 226.00
C 153.63 216.16 154.04 203.36 150.00 195.00
C 146.89 188.47 154.15 186.41 160.00 190.00
C 157.67 185.55 160.31 183.31 165.00 184.00
C 156.08 180.70 139.77 184.85 139.00 196.00
C 150.53 197.70 152.90 213.57 150.00 223.00 Z"/>
</g>
<g fill="#AEBADD" fill-opacity="1.00" stroke="None">
<path d="
M 160.00 190.00 
C 168.66 195.31 170.30 210.69 169.00 220.00
C 172.68 212.21 175.19 205.60 174.00 196.00
C 172.27 190.81 170.70 186.10 165.00 184.00
C 160.31 183.31 157.67 185.55 160.00 190.00 Z"/>
</g>
<g fill="#246EA8" fill-opacity="1.00" stroke="None">
<path d="
M 211.00 211.00 
C 210.95 213.97 211.64 216.29 212.00 219.00
C 212.32 219.82 213.63 221.20 214.00 222.00
C 214.33 219.53 219.18 218.35 217.00 214.00
C 225.66 211.30 228.90 202.05 238.23 198.23 C 247.55 194.41 259.21 194.24 267.00 189.00
C 269.00 188.04 269.04 188.07 271.00 189.00
C 272.23 189.59 271.91 190.79 272.00 192.00
C 281.47 189.38 292.33 189.50 301.22 193.78 C 310.11 198.06 324.76 194.56 329.00 204.00
C 332.97 213.19 331.08 217.46 328.00 226.00
C 327.91 228.09 327.18 232.27 326.00 234.00
C 328.20 228.20 335.90 220.14 334.00 213.00 C 332.10 205.87 330.16 196.88 323.07 194.93 C 315.99 192.98 309.05 187.57 302.00 189.00
C 301.14 189.17 300.86 191.24 299.30 190.64 C 297.75 190.04 297.94 187.25 299.00 187.00
C 291.08 184.67 279.10 185.02 271.00 185.00 C 262.90 184.98 252.55 186.51 246.25 188.80 C 239.94 191.09 231.67 193.57 227.08 198.08 C 222.50 202.60 212.71 205.68 211.00 211.00 Z"/>
</g>
<g fill="#98B8D5" fill-opacity="1.00" stroke="None">
<path d="
M 302.00 189.00 
C 301.18 188.70 300.30 187.38 299.00 187.00
C 297.94 187.25 297.75 190.04 299.30 190.64 C 300.86 191.24 301.14 189.17 302.00 189.00 Z"/>
</g>
<g fill="#041831" fill-opacity="1.00" stroke="None">
<path d="
M 150.00 195.00 
C 153.24 196.80 159.17 195.45 159.92 201.08 C 160.68 206.70 163.30 210.43 162.00 216.00 C 160.70 221.57 160.29 224.65 159.00 230.00
C 144.35 229.39 154.33 248.25 163.00 236.00
C 166.55 231.72 166.66 224.94 169.00 220.00
C 170.30 210.69 168.66 195.31 160.00 190.00
C 154.15 186.41 146.89 188.47 150.00 195.00 Z"/>
</g>
<g fill="#E2EFF5" fill-opacity="1.00" stroke="None">
<path d="
M 267.00 189.00 
C 263.94 193.58 274.04 193.56 271.00 189.00
C 269.04 188.07 269.00 188.04 267.00 189.00 Z"/>
</g>
<g fill="#247DB6" fill-opacity="1.00" stroke="None">
<path d="
M 214.00 222.00 
C 216.46 227.35 218.43 231.34 222.00 236.00
C 219.91 231.71 223.97 224.92 224.33 219.33 C 224.69 213.74 233.56 210.44 232.00 204.00
C 242.35 201.06 256.60 198.57 267.67 199.67 C 278.74 200.77 287.44 197.16 298.01 201.99 C 308.58 206.82 318.35 200.29 329.00 204.00
C 324.76 194.56 310.11 198.06 301.22 193.78 C 292.33 189.50 281.47 189.38 272.00 192.00
C 271.91 190.79 272.23 189.59 271.00 189.00
C 274.04 193.56 263.94 193.58 267.00 189.00
C 259.21 194.24 247.55 194.41 238.23 198.23 C 228.90 202.05 225.66 211.30 217.00 214.00
C 219.18 218.35 214.33 219.53 214.00 222.00
M 222.00 214.00 
C 224.53 215.23 222.22 220.46 219.32 218.66 C 216.42 216.86 219.18 212.63 222.00 214.00 Z"/>
</g>
<g fill="#526198" fill-opacity="1.00" stroke="None">
<path d="
M 360.00 194.00 
C 361.07 210.03 359.16 225.78 351.00 239.00
C 367.57 231.28 369.73 207.57 365.00 192.00
C 365.39 195.84 364.62 199.44 364.00 203.00
C 361.83 201.90 360.86 196.65 360.00 194.00 Z"/>
</g>
<g fill="#46568C" fill-opacity="1.00" stroke="None">
<path d="
M 150.00 223.00 
C 148.20 227.18 145.51 231.43 142.00 235.00
C 148.64 241.96 157.28 248.35 166.77 242.77 C 176.26 237.19 178.00 227.27 178.00 217.00
C 176.40 222.91 167.93 232.11 163.00 236.00
C 154.33 248.25 144.35 229.39 159.00 230.00
C 160.29 224.65 160.70 221.57 162.00 216.00 C 163.30 210.43 160.68 206.70 159.92 201.08 C 159.17 195.45 153.24 196.80 150.00 195.00
C 154.04 203.36 153.63 216.16 152.00 226.00
C 150.42 225.78 150.20 224.20 150.00 223.00 Z"/>
</g>
<g fill="#7C88BC" fill-opacity="1.00" stroke="None">
<path d="
M 169.00 220.00 
C 166.66 224.94 166.55 231.72 163.00 236.00
C 167.93 232.11 176.40 222.91 178.00 217.00
C 178.00 209.37 176.22 202.65 174.00 196.00
C 175.19 205.60 172.68 212.21 169.00 220.00 Z"/>
</g>
<g fill="#238DC2" fill-opacity="1.00" stroke="None">
<path d="
M 222.00 236.00 
C 236.72 266.16 283.31 262.56 309.00 254.00
C 309.10 253.92 317.24 241.62 316.00 250.00
C 317.98 248.37 319.94 246.44 322.00 245.00
C 322.00 245.00 321.83 244.43 322.00 244.00
C 322.82 241.90 324.16 240.10 325.00 238.00
C 325.54 236.66 325.53 235.25 326.00 234.00
C 321.49 240.57 308.84 239.92 302.31 245.31 C 295.77 250.69 285.26 254.90 276.00 254.00 C 266.74 253.10 259.32 248.34 250.92 244.08 C 242.52 239.82 237.19 237.86 233.02 226.98 C 228.86 216.09 235.82 209.88 244.00 204.00
C 245.40 203.00 244.89 202.26 247.00 202.00
C 255.72 200.94 267.67 207.27 275.74 209.26 C 283.82 211.25 298.37 209.53 299.00 220.00
C 305.07 220.85 311.94 211.88 313.00 206.00
C 318.06 206.20 326.22 201.01 329.30 206.70 C 332.38 212.39 330.87 218.13 328.00 223.00
C 327.92 223.49 328.00 224.00 328.00 224.00
C 328.00 224.50 328.02 225.50 328.00 226.00
C 331.08 217.46 332.97 213.19 329.00 204.00
C 318.35 200.29 308.58 206.82 298.01 201.99 C 287.44 197.16 278.74 200.77 267.67 199.67 C 256.60 198.57 242.35 201.06 232.00 204.00
C 233.56 210.44 224.69 213.74 224.33 219.33 C 223.97 224.92 219.91 231.71 222.00 236.00 Z"/>
</g>
<g fill="#6F7D93" fill-opacity="1.00" stroke="None">
<path d="
M 345.00 213.00 
C 345.51 208.82 345.70 204.29 345.00 200.00
C 345.23 204.29 345.09 208.71 345.00 213.00 Z"/>
</g>
<g fill="#7E8BBD" fill-opacity="1.00" stroke="None">
<path d="
M 133.00 205.00 
C 139.78 199.91 139.89 211.55 140.00 216.00 C 140.11 220.45 133.38 226.84 131.00 219.00
C 132.72 232.86 141.92 227.62 144.00 219.00 C 146.08 210.38 138.89 195.38 133.00 205.00 Z"/>
</g>
<g fill="#B4DCEC" fill-opacity="1.00" stroke="None">
<path d="
M 244.00 204.00 
C 244.32 203.96 245.39 206.32 246.70 205.64 C 248.01 204.96 248.24 202.29 247.00 202.00
C 244.89 202.26 245.40 203.00 244.00 204.00 Z"/>
</g>
<g fill="#2B9ECE" fill-opacity="1.00" stroke="None">
<path d="
M 244.00 204.00 
C 235.82 209.88 228.86 216.09 233.02 226.98 C 237.19 237.86 242.52 239.82 250.92 244.08 C 259.32 248.34 266.74 253.10 276.00 254.00 C 285.26 254.90 295.77 250.69 302.31 245.31 C 308.84 239.92 321.49 240.57 326.00 234.00
C 327.18 232.27 327.91 228.09 328.00 226.00
C 328.02 225.50 328.00 224.50 328.00 224.00
C 323.78 232.70 317.45 229.05 311.00 230.00
C 314.72 223.22 308.82 213.36 318.25 207.25 C 327.67 201.14 333.61 215.33 328.00 223.00
C 330.87 218.13 332.38 212.39 329.30 206.70 C 326.22 201.01 318.06 206.20 313.00 206.00
C 311.94 211.88 305.07 220.85 299.00 220.00
C 298.37 209.53 283.82 211.25 275.74 209.26 C 267.67 207.27 255.72 200.94 247.00 202.00
C 248.24 202.29 248.01 204.96 246.70 205.64 C 245.39 206.32 244.32 203.96 244.00 204.00
M 254.00 208.00 
C 262.61 209.78 274.20 226.15 266.23 234.23 C 258.25 242.31 244.55 238.18 238.08 227.92 C 231.62 217.66 238.70 204.83 254.00 208.00
M 297.00 214.00 
C 299.53 215.23 297.22 220.46 294.32 218.66 C 291.42 216.86 294.18 212.63 297.00 214.00
M 272.00 234.00 
C 274.53 235.23 272.22 240.46 269.32 238.66 C 266.42 236.86 269.18 232.63 272.00 234.00
M 282.00 249.00 
C 281.82 241.38 289.94 249.39 282.00 249.00 Z"/>
</g>
<g fill="#B9C5E6" fill-opacity="1.00" stroke="None">
<path d="
M 133.00 205.00 
C 130.58 208.95 130.42 214.30 131.00 219.00
C 133.38 226.84 140.11 220.45 140.00 216.00 C 139.89 211.55 139.78 199.91 133.00 205.00 Z"/>
</g>
<g fill="#53B6DB" fill-opacity="1.00" stroke="None">
<path d="
M 328.00 224.00 
C 328.00 224.00 327.92 223.49 328.00 223.00
C 333.61 215.33 327.67 201.14 318.25 207.25 C 308.82 213.36 314.72 223.22 311.00 230.00
C 317.45 229.05 323.78 232.70 328.00 224.00
M 317.00 228.00 
C 313.61 221.79 319.09 202.16 326.74 208.26 C 334.39 214.36 320.92 225.98 317.00 228.00 Z"/>
</g>
<g fill="#F8FDFD" fill-opacity="1.00" stroke="None">
<path d="
M 317.00 228.00 
C 320.92 225.98 334.39 214.36 326.74 208.26 C 319.09 202.16 313.61 221.79 317.00 228.00 Z"/>
</g>
<g fill="#5DBEE1" fill-opacity="1.00" stroke="None">
<path d="
M 254.00 208.00 
C 238.70 204.83 231.62 217.66 238.08 227.92 C 244.55 238.18 258.25 242.31 266.23 234.23 C 274.20 226.15 262.61 209.78 254.00 208.00
M 251.00 211.00 
C 257.37 212.32 267.30 225.71 262.00 232.00 C 256.70 238.29 245.57 232.17 240.25 225.75 C 234.93 219.33 238.68 208.45 251.00 211.00 Z"/>
</g>
<g fill="#F9FDFE" fill-opacity="1.00" stroke="None">
<path d="
M 251.00 211.00 
C 238.68 208.45 234.93 219.33 240.25 225.75 C 245.57 232.17 256.70 238.29 262.00 232.00 C 267.30 225.71 257.37 212.32 251.00 211.00 Z"/>
</g>
<g fill="#DFEDF4" fill-opacity="1.00" stroke="None">
<path d="
M 222.00 214.00 
C 219.18 212.63 216.42 216.86 219.32 218.66 C 222.22 220.46 224.53 215.23 222.00 214.00 Z"/>
</g>
<g fill="#E5F4FA" fill-opacity="1.00" stroke="None">
<path d="
M 297.00 214.00 
C 294.18 212.63 291.42 216.86 294.32 218.66 C 297.22 220.46 299.53 215.23 297.00 214.00 Z"/>
</g>
<g fill="#1F528C" fill-opacity="1.00" stroke="None">
<path d="
M 322.00 245.00 
C 319.94 246.44 317.98 248.37 316.00 250.00
C 313.62 251.95 312.05 252.98 309.00 254.00
C 283.31 262.56 236.72 266.16 222.00 236.00
C 218.43 231.34 216.46 227.35 214.00 222.00
C 213.63 221.20 212.32 219.82 212.00 219.00
C 214.16 235.22 220.46 251.13 234.30 260.70 C 248.15 270.27 269.12 275.18 283.93 269.93 C 298.74 264.67 314.72 259.89 322.00 245.00
M 280.00 266.00 
C 279.45 257.93 288.11 266.49 280.00 266.00
M 269.00 264.00 
C 268.75 269.59 263.38 264.31 269.00 264.00 Z"/>
</g>
<g fill="#A5DDF5" fill-opacity="1.00" stroke="None">
<path d="
M 347.00 314.00 
C 348.47 313.86 355.41 313.79 357.00 313.00
C 370.38 286.64 378.34 253.94 371.00 225.00
C 369.22 236.88 360.89 245.72 350.07 250.07 C 339.26 254.43 344.18 272.83 334.77 280.77 C 325.36 288.71 343.12 304.59 334.00 315.00
C 338.49 314.63 342.39 314.00 347.00 314.00 Z"/>
</g>
<g fill="#516098" fill-opacity="1.00" stroke="None">
<path d="
M 276.00 289.00 
C 265.75 291.50 253.89 292.60 242.98 291.02 C 232.06 289.45 223.28 288.05 213.32 283.68 C 203.36 279.31 201.00 274.71 192.70 267.30 C 184.39 259.89 187.74 247.21 187.00 238.00
C 184.24 234.41 184.98 229.16 182.00 226.00
C 182.05 235.18 177.27 244.58 169.00 249.00
C 179.73 265.03 189.96 279.06 207.77 288.23 C 225.58 297.40 253.23 301.70 273.33 297.33 C 293.43 292.96 314.30 289.70 326.00 272.00
C 310.98 282.38 292.88 284.88 276.00 289.00 Z"/>
</g>
<g fill="#E2F3F8" fill-opacity="1.00" stroke="None">
<path d="
M 272.00 234.00 
C 269.18 232.63 266.42 236.86 269.32 238.66 C 272.22 240.46 274.53 235.23 272.00 234.00 Z"/>
</g>
<g fill="#7F8ABE" fill-opacity="1.00" stroke="None">
<path d="
M 276.00 289.00 
C 238.00 292.68 201.03 273.74 187.00 238.00
C 187.74 247.21 184.39 259.89 192.70 267.30 C 201.00 274.71 203.36 279.31 213.32 283.68 C 223.28 288.05 232.06 289.45 242.98 291.02 C 253.89 292.60 265.75 291.50 276.00 289.00 Z"/>
</g>
<g fill="#2D528A" fill-opacity="1.00" stroke="None">
<path d="
M 328.00 254.00 
C 327.49 254.60 333.26 254.52 334.00 254.00
C 336.63 250.32 338.84 246.00 341.00 242.00
C 337.79 246.73 331.53 249.81 328.00 254.00 Z"/>
</g>
<g fill="#E1F3F8" fill-opacity="1.00" stroke="None">
<path d="
M 282.00 249.00 
C 289.94 249.39 281.82 241.38 282.00 249.00 Z"/>
</g>
<g fill="#D6E8F1" fill-opacity="1.00" stroke="None">
<path d="
M 309.00 254.00 
C 312.05 252.98 313.62 251.95 316.00 250.00
C 317.24 241.62 309.10 253.92 309.00 254.00 Z"/>
</g>
<g fill="#021730" fill-opacity="0.89" stroke="None">
<path d="
M 124.00 264.00 
C 126.91 258.34 115.20 249.27 111.75 255.75 C 108.31 262.24 106.15 263.24 100.31 267.31 C 94.46 271.37 103.76 281.65 109.00 279.00
C 106.28 290.86 126.01 290.44 124.00 279.00
C 136.02 280.64 136.16 261.93 124.00 264.00
M 117.00 263.00 
C 116.41 267.49 120.53 269.62 124.00 271.00
C 121.03 272.39 117.16 275.04 117.00 279.00
C 114.27 276.29 112.76 272.52 109.00 271.00
C 112.72 269.92 114.98 265.95 117.00 263.00 Z"/>
</g>
<g fill="#D0DCE8" fill-opacity="1.00" stroke="None">
<path d="
M 280.00 266.00 
C 288.11 266.49 279.45 257.93 280.00 266.00 Z"/>
</g>
<g fill="#97CCE5" fill-opacity="0.98" stroke="None">
<path d="
M 117.00 263.00 
C 114.98 265.95 112.72 269.92 109.00 271.00
C 112.76 272.52 114.27 276.29 117.00 279.00
C 117.16 275.04 121.03 272.39 124.00 271.00
C 120.53 269.62 116.41 267.49 117.00 263.00 Z"/>
</g>
<g fill="#A5DCF5" fill-opacity="1.00" stroke="None">
<path d="
M 129.00 344.00 
C 127.21 346.55 129.12 355.68 129.00 359.00 C 128.88 362.32 127.53 371.03 129.00 374.00
C 132.08 378.27 139.81 375.47 145.00 376.00 C 150.19 376.53 157.52 375.95 163.00 376.00 C 168.48 376.05 175.57 376.39 181.00 376.00 C 186.43 375.61 194.01 377.08 199.00 376.00 C 203.99 374.92 212.16 378.69 216.00 376.00
C 215.38 373.57 217.27 369.59 215.00 368.00
C 197.17 373.33 179.87 356.72 191.00 340.00
C 168.90 343.00 164.82 317.18 180.00 306.00
C 174.54 302.38 171.40 296.32 171.00 290.00
C 170.52 287.34 170.45 285.63 171.00 283.00
C 174.46 275.37 173.43 268.81 167.00 263.00
C 167.00 289.67 167.00 316.33 167.00 343.00
C 161.25 343.84 152.45 341.88 147.00 343.00 C 141.55 344.12 132.72 340.28 129.00 344.00 Z"/>
</g>
<g fill="#9DB6CE" fill-opacity="1.00" stroke="None">
<path d="
M 269.00 264.00 
C 263.38 264.31 268.75 269.59 269.00 264.00 Z"/>
</g>
<g fill="#47588F" fill-opacity="1.00" stroke="None">
<path d="
M 185.00 297.00 
C 195.11 302.47 211.49 308.36 224.00 311.00
C 232.14 312.72 240.40 314.00 249.00 314.00
C 254.67 314.00 260.33 314.00 266.00 314.00
C 280.20 314.00 296.09 311.25 309.00 306.00
C 311.34 305.05 313.97 302.71 317.00 303.00
C 312.89 313.11 320.93 321.96 329.00 327.00
C 326.65 324.08 332.63 323.10 332.00 320.00
C 314.66 320.46 329.48 306.51 322.25 298.75 C 315.01 291.00 306.22 300.90 297.02 303.02 C 287.83 305.15 276.40 308.49 266.00 309.00 C 255.60 309.51 241.51 308.24 231.67 306.33 C 221.83 304.42 212.25 301.81 203.70 297.31 C 195.14 292.80 189.85 288.88 183.00 282.00
C 180.27 287.64 180.50 292.54 185.00 297.00 Z"/>
</g>
<g fill="#476D88" fill-opacity="1.00" stroke="None">
<path d="
M 171.00 290.00 
C 170.86 287.75 170.81 285.25 171.00 283.00
C 170.45 285.63 170.52 287.34 171.00 290.00 Z"/>
</g>
<g fill="#AACCE5" fill-opacity="1.00" stroke="None">
<path d="
M 185.00 297.00 
C 188.26 300.23 193.33 303.45 192.00 309.00
C 194.80 312.77 203.03 311.44 207.02 313.98 C 211.02 316.51 218.51 316.26 223.00 318.00
C 223.07 315.59 222.56 313.05 224.00 311.00
C 211.49 308.36 195.11 302.47 185.00 297.00 Z"/>
</g>
<g fill="#90CBE6" fill-opacity="1.00" stroke="None">
<path d="
M 309.00 306.00 
C 309.96 306.17 312.72 308.85 313.00 310.00
C 313.31 311.26 312.71 312.74 313.00 314.00
C 313.59 316.53 317.35 317.53 318.00 320.00
C 310.80 324.02 306.58 327.05 300.75 333.75 C 294.92 340.46 286.03 341.54 277.00 341.00 C 267.97 340.46 256.12 341.74 247.78 339.22 C 239.43 336.71 236.37 325.83 226.00 330.00 C 215.63 334.17 217.94 324.43 210.30 318.70 C 202.66 312.96 190.57 322.38 185.00 318.00
C 183.09 321.66 181.67 323.76 186.00 326.00
C 190.45 327.50 196.78 325.72 201.00 327.00
C 208.90 329.40 214.81 338.21 204.25 344.25 C 193.69 350.29 207.74 359.62 213.75 351.75 C 219.77 343.88 222.32 338.10 231.98 338.02 C 241.63 337.95 244.83 350.30 238.75 356.75 C 232.68 363.21 228.64 369.52 235.00 376.00
C 244.21 376.18 241.83 360.48 253.00 361.00 C 264.18 361.52 259.67 378.31 267.00 380.00
C 274.01 380.49 274.89 374.46 275.00 369.00
C 275.21 358.41 276.31 357.63 283.00 351.00
C 293.55 340.56 295.28 356.73 302.00 363.00
C 304.90 364.57 312.47 368.90 315.00 364.00
C 316.35 349.14 298.54 343.89 310.00 331.00
C 319.96 319.80 330.73 334.09 340.08 340.92 C 349.43 347.74 370.40 353.74 371.00 336.00
C 368.32 342.94 345.15 338.48 350.00 329.00
C 347.81 329.37 345.23 329.00 343.00 329.00
C 340.20 329.27 337.90 329.72 335.00 329.00
C 332.70 328.43 331.10 328.29 329.00 327.00
C 320.93 321.96 312.89 313.11 317.00 303.00
C 313.97 302.71 311.34 305.05 309.00 306.00
M 213.00 346.00 
C 213.62 348.83 210.84 351.62 208.00 351.00
C 207.38 348.17 210.16 345.38 213.00 346.00
M 309.00 351.00 
C 313.51 352.49 313.21 363.46 307.00 362.00 C 300.78 360.53 303.93 349.32 309.00 351.00
M 270.00 360.00 
C 273.35 362.97 274.76 373.76 268.97 373.97 C 263.18 374.18 265.15 359.87 270.00 360.00
M 242.00 362.00 
C 242.65 364.66 241.02 368.11 238.00 368.00
C 237.35 365.34 238.98 361.89 242.00 362.00 Z"/>
</g>
<g fill="#D5E6F3" fill-opacity="1.00" stroke="None">
<path d="
M 266.00 314.00 
C 260.65 314.52 254.28 314.51 249.00 314.00
C 240.40 314.00 232.14 312.72 224.00 311.00
C 222.56 313.05 223.07 315.59 223.00 318.00
C 218.51 316.26 211.02 316.51 207.02 313.98 C 203.03 311.44 194.80 312.77 192.00 309.00
C 191.38 311.58 186.37 315.38 185.00 318.00
C 190.57 322.38 202.66 312.96 210.30 318.70 C 217.94 324.43 215.63 334.17 226.00 330.00 C 236.37 325.83 239.43 336.71 247.78 339.22 C 256.12 341.74 267.97 340.46 277.00 341.00 C 286.03 341.54 294.92 340.46 300.75 333.75 C 306.58 327.05 310.80 324.02 318.00 320.00
C 317.35 317.53 313.59 316.53 313.00 314.00
C 311.19 319.47 301.09 320.22 295.78 322.78 C 290.46 325.33 279.90 326.04 272.99 326.99 C 266.08 327.94 254.19 326.52 247.00 326.00 C 239.81 325.48 232.72 322.29 226.00 320.00
C 240.36 318.77 258.72 318.85 273.00 317.00 C 287.28 315.15 299.78 307.34 313.00 310.00
C 312.72 308.85 309.96 306.17 309.00 306.00
C 296.09 311.25 280.20 314.00 266.00 314.00 Z"/>
</g>
<g fill="#F9FCFE" fill-opacity="1.00" stroke="None">
<path d="
M 313.00 314.00 
C 312.71 312.74 313.31 311.26 313.00 310.00
C 299.78 307.34 287.28 315.15 273.00 317.00 C 258.72 318.85 240.36 318.77 226.00 320.00
C 232.72 322.29 239.81 325.48 247.00 326.00 C 254.19 326.52 266.08 327.94 272.99 326.99 C 279.90 326.04 290.46 325.33 295.78 322.78 C 301.09 320.22 311.19 319.47 313.00 314.00 Z"/>
</g>
<g fill="#5E859E" fill-opacity="1.00" stroke="None">
<path d="
M 347.00 314.00 
C 350.17 314.00 354.58 314.74 357.00 313.00
C 355.41 313.79 348.47 313.86 347.00 314.00 Z"/>
</g>
<g fill="#859AC0" fill-opacity="1.00" stroke="None">
<path d="
M 266.00 314.00 
C 260.33 314.00 254.67 314.00 249.00 314.00
C 254.28 314.51 260.65 314.52 266.00 314.00 Z"/>
</g>
<g fill="#13273A" fill-opacity="0.75" stroke="None">
<path d="
M 127.00 322.00 
C 131.20 322.18 144.88 325.50 146.00 321.00
C 143.58 322.69 139.17 322.06 136.00 322.00
C 133.58 321.95 130.70 321.17 129.00 321.00
C 128.07 321.13 127.47 321.88 127.00 322.00 Z"/>
</g>
<g fill="#1E1E3C" fill-opacity="0.04" stroke="None">
<path d="
M 136.00 322.00 
C 135.96 322.00 136.00 321.00 136.00 321.00
C 133.74 321.00 131.24 320.70 129.00 321.00
C 130.70 321.17 133.58 321.95 136.00 322.00 Z"/>
</g>
<g fill="#172D3C" fill-opacity="0.05" stroke="None">
<path d="
M 136.00 322.00 
C 139.17 322.06 143.58 322.69 146.00 321.00
C 142.67 321.00 139.33 321.00 136.00 321.00
C 136.00 321.00 135.96 322.00 136.00 322.00 Z"/>
</g>
<g fill="#3E7E9E" fill-opacity="1.00" stroke="None">
<path d="
M 201.00 327.00 
C 196.78 325.72 190.45 327.50 186.00 326.00
C 190.23 328.19 196.05 326.16 201.00 327.00 Z"/>
</g>
<g fill="#409EC7" fill-opacity="1.00" stroke="None">
<path d="
M 310.00 331.00 
C 321.16 328.61 318.58 349.39 330.00 344.00 C 341.41 338.61 346.63 355.01 358.00 353.00 C 369.37 350.99 377.39 345.79 371.00 333.00
C 371.13 333.92 371.03 335.07 371.00 336.00
C 370.40 353.74 349.43 347.74 340.08 340.92 C 330.73 334.09 319.96 319.80 310.00 331.00 Z"/>
</g>
<g fill="#F5F8FA" fill-opacity="1.00" stroke="None">
<path d="
M 350.00 329.00 
C 345.15 338.48 368.32 342.94 371.00 336.00
C 371.03 335.07 371.13 333.92 371.00 333.00
C 366.02 323.04 358.31 327.60 350.00 329.00 Z"/>
</g>
<g fill="#4F758F" fill-opacity="1.00" stroke="None">
<path d="
M 343.00 329.00 
C 340.40 329.00 337.58 329.32 335.00 329.00
C 337.90 329.72 340.20 329.27 343.00 329.00 Z"/>
</g>
<g fill="#4E718A" fill-opacity="1.00" stroke="None">
<path d="
M 129.00 374.00 
C 127.53 371.03 128.88 362.32 129.00 359.00 C 129.12 355.68 127.21 346.55 129.00 344.00
C 126.36 346.64 128.17 355.07 128.00 359.00 C 127.83 362.93 126.81 370.97 129.00 374.00 Z"/>
</g>
<g fill="#E7F5FA" fill-opacity="1.00" stroke="None">
<path d="
M 213.00 346.00 
C 210.16 345.38 207.38 348.17 208.00 351.00
C 210.84 351.62 213.62 348.83 213.00 346.00 Z"/>
</g>
<g fill="#52B1D6" fill-opacity="1.00" stroke="None">
<path d="
M 283.00 351.00 
C 290.61 349.26 295.44 355.19 298.00 361.00
C 299.06 361.94 300.76 362.33 302.00 363.00
C 295.28 356.73 293.55 340.56 283.00 351.00 Z"/>
</g>
<g fill="#F2F9FC" fill-opacity="1.00" stroke="None">
<path d="
M 309.00 351.00 
C 303.93 349.32 300.78 360.53 307.00 362.00 C 313.21 363.46 313.51 352.49 309.00 351.00 Z"/>
</g>
<g fill="#F6FAFD" fill-opacity="1.00" stroke="None">
<path d="
M 270.00 360.00 
C 265.15 359.87 263.18 374.18 268.97 373.97 C 274.76 373.76 273.35 362.97 270.00 360.00 Z"/>
</g>
<g fill="#46A5CE" fill-opacity="1.00" stroke="None">
<path d="
M 235.00 376.00 
C 239.70 380.79 237.26 385.29 234.00 390.00
C 239.10 384.95 243.15 387.61 247.00 392.00
C 246.99 391.50 247.00 391.00 247.00 391.00
C 247.00 383.61 243.97 373.80 250.31 368.31 C 256.64 362.82 260.89 375.44 263.00 379.00
C 263.71 379.49 266.05 379.93 267.00 380.00
C 259.67 378.31 264.18 361.52 253.00 361.00 C 241.83 360.48 244.21 376.18 235.00 376.00 Z"/>
</g>
<g fill="#3690BE" fill-opacity="1.00" stroke="None">
<path d="
M 315.00 364.00 
C 312.47 368.90 304.90 364.57 302.00 363.00
C 300.76 362.33 299.06 361.94 298.00 361.00
C 300.19 365.96 300.10 371.55 305.78 374.22 C 311.45 376.89 314.58 368.64 315.00 364.00 Z"/>
</g>
<g fill="#F3F9FC" fill-opacity="1.00" stroke="None">
<path d="
M 242.00 362.00 
C 238.98 361.89 237.35 365.34 238.00 368.00
C 241.02 368.11 242.65 364.66 242.00 362.00 Z"/>
</g>
<g fill="#4A6981" fill-opacity="1.00" stroke="None">
<path d="
M 215.00 368.00 
C 217.27 369.59 215.38 373.57 216.00 376.00
C 219.66 373.44 216.10 368.26 215.00 368.00 Z"/>
</g>
<g fill="#3483B0" fill-opacity="1.00" stroke="None">
<path d="
M 267.00 380.00 
C 266.05 379.93 263.71 379.49 263.00 379.00
C 265.28 382.85 268.80 386.10 273.25 382.25 C 277.69 378.39 275.42 373.31 275.00 369.00
C 274.89 374.46 274.01 380.49 267.00 380.00 Z"/>
</g>
<g fill="#57ADD1" fill-opacity="1.00" stroke="None">
<path d="
M 327.00 383.00 
C 336.93 390.58 314.96 394.91 321.00 382.00
C 322.00 382.00 323.00 382.00 324.00 382.00
C 322.13 379.62 318.58 379.43 316.00 378.00
C 313.13 384.46 314.52 393.38 323.33 395.67 C 332.14 397.96 336.49 388.21 327.00 383.00 Z"/>
</g>
<g fill="#F1F9FB" fill-opacity="1.00" stroke="None">
<path d="
M 327.00 383.00 
C 326.05 382.48 324.87 382.41 324.00 382.00
C 323.00 382.00 322.00 382.00 321.00 382.00
C 314.96 394.91 336.93 390.58 327.00 383.00 Z"/>
</g>
<g fill="#96CEE8" fill-opacity="1.00" stroke="None">
<path d="
M 234.00 390.00 
C 230.51 395.03 228.63 398.22 229.00 405.00
C 230.64 410.40 238.05 411.79 243.23 408.23 C 248.41 404.66 247.13 397.48 247.00 392.00
C 243.15 387.61 239.10 384.95 234.00 390.00
M 243.00 391.00 
C 247.90 394.10 242.61 407.83 236.78 404.22 C 230.94 400.61 239.17 388.58 243.00 391.00 Z"/>
</g>
<g fill="#F6FBFD" fill-opacity="1.00" stroke="None">
<path d="
M 243.00 391.00 
C 239.17 388.58 230.94 400.61 236.78 404.22 C 242.61 407.83 247.90 394.10 243.00 391.00 Z"/>
</g>
<g fill="#358AB9" fill-opacity="1.00" stroke="None">
<path d="
M 247.00 392.00 
C 247.13 397.48 248.41 404.66 243.23 408.23 C 238.05 411.79 230.64 410.40 229.00 405.00
C 229.48 413.89 238.86 419.09 245.25 413.25 C 251.63 407.40 250.46 396.36 247.00 391.00
C 247.00 391.00 246.99 391.50 247.00 392.00 Z"/>
</g>
</svg>